<svg viewBox="0 0 761.4000244140625 400" xmlns="http://www.w3.org/2000/svg"><g><g><g><g><g><line x1="30" y1="378" x2="25" y2="378" style="visibility: inherit;" fill="rgb(0, 0, 0)" stroke="rgb(204, 204, 204)" stroke-width="1px"></line><line x1="30" y1="330.75" x2="25" y2="330.75" style="visibility: inherit;" fill="rgb(0, 0, 0)" stroke="rgb(204, 204, 204)" stroke-width="1px"></line><line x1="30" y1="283.5" x2="25" y2="283.5" style="visibility: inherit;" fill="rgb(0, 0, 0)" stroke="rgb(204, 204, 204)" stroke-width="1px"></line><line x1="30" y1="236.25" x2="25" y2="236.25" style="visibility: inherit;" fill="rgb(0, 0, 0)" stroke="rgb(204, 204, 204)" stroke-width="1px"></line><line x1="30" y1="189" x2="25" y2="189" style="visibility: inherit;" fill="rgb(0, 0, 0)" stroke="rgb(204, 204, 204)" stroke-width="1px"></line><line x1="30" y1="141.75" x2="25" y2="141.75" style="visibility: inherit;" fill="rgb(0, 0, 0)" stroke="rgb(204, 204, 204)" stroke-width="1px"></line><line x1="30" y1="94.5" x2="25" y2="94.5" style="visibility: inherit;" fill="rgb(0, 0, 0)" stroke="rgb(204, 204, 204)" stroke-width="1px"></line><line x1="30" y1="47.25" x2="25" y2="47.25" style="visibility: inherit;" fill="rgb(0, 0, 0)" stroke="rgb(204, 204, 204)" stroke-width="1px"></line><line x1="30" y1="0" x2="25" y2="0" style="visibility: inherit;" fill="rgb(0, 0, 0)" stroke="rgb(204, 204, 204)" stroke-width="1px"></line></g><g transform="translate(20, 0)"><text x="0" y="378" dx="0em" dy="0.3em" style="text-anchor: end; visibility: hidden; font-family: Roboto, sans-serif; font-size: 12px; font-weight: 200;" fill="rgb(50, 49, 63)" stroke="none" stroke-width="1px">-1</text><text x="0" y="330.75" dx="0em" dy="0.3em" style="text-anchor: end; visibility: inherit; font-family: Roboto, sans-serif; font-size: 12px; font-weight: 200;" fill="rgb(50, 49, 63)" stroke="none" stroke-width="1px">0</text><text x="0" y="283.5" dx="0em" dy="0.3em" style="text-anchor: end; visibility: inherit; font-family: Roboto, sans-serif; font-size: 12px; font-weight: 200;" fill="rgb(50, 49, 63)" stroke="none" stroke-width="1px">1</text><text x="0" y="236.25" dx="0em" dy="0.3em" style="text-anchor: end; visibility: inherit; font-family: Roboto, sans-serif; font-size: 12px; font-weight: 200;" fill="rgb(50, 49, 63)" stroke="none" stroke-width="1px">2</text><text x="0" y="189" dx="0em" dy="0.3em" style="text-anchor: end; visibility: inherit; font-family: Roboto, sans-serif; font-size: 12px; font-weight: 200;" fill="rgb(50, 49, 63)" stroke="none" stroke-width="1px">3</text><text x="0" y="141.75" dx="0em" dy="0.3em" style="text-anchor: end; visibility: inherit; font-family: Roboto, sans-serif; font-size: 12px; font-weight: 200;" fill="rgb(50, 49, 63)" stroke="none" stroke-width="1px">4</text><text x="0" y="94.5" dx="0em" dy="0.3em" style="text-anchor: end; visibility: inherit; font-family: Roboto, sans-serif; font-size: 12px; font-weight: 200;" fill="rgb(50, 49, 63)" stroke="none" stroke-width="1px">5</text><text x="0" y="47.25" dx="0em" dy="0.3em" style="text-anchor: end; visibility: inherit; font-family: Roboto, sans-serif; font-size: 12px; font-weight: 200;" fill="rgb(50, 49, 63)" stroke="none" stroke-width="1px">6</text><text x="0" y="0" dx="0em" dy="0.3em" style="text-anchor: end; visibility: hidden; font-family: Roboto, sans-serif; font-size: 12px; font-weight: 200;" fill="rgb(50, 49, 63)" stroke="none" stroke-width="1px">7</text></g><line x1="30" y1="0" x2="30" y2="378" fill="rgb(0, 0, 0)" stroke="rgb(204, 204, 204)" stroke-width="1px"></line></g></g><g transform="translate(30, 0)" clip-path="url(#clip_0)"><clipPath id="clip_0"><rect width="731" height="378"></rect></clipPath><g><g><g><line x1="0" y1="0" x2="0" y2="378" fill="rgb(0, 0, 0)" stroke="rgb(60, 60, 60)" stroke-width="1px" opacity="0.25"></line><line x1="60.949999999999996" y1="0" x2="60.949999999999996" y2="378" fill="rgb(0, 0, 0)" stroke="rgb(60, 60, 60)" stroke-width="1px" opacity="0.25"></line><line x1="121.89999999999999" y1="0" x2="121.89999999999999" y2="378" fill="rgb(0, 0, 0)" stroke="rgb(60, 60, 60)" stroke-width="1px" opacity="0.25"></line><line x1="182.85" y1="0" x2="182.85" y2="378" fill="rgb(0, 0, 0)" stroke="rgb(60, 60, 60)" stroke-width="1px" opacity="0.25"></line><line x1="243.79999999999998" y1="0" x2="243.79999999999998" y2="378" fill="rgb(0, 0, 0)" stroke="rgb(60, 60, 60)" stroke-width="1px" opacity="0.25"></line><line x1="304.75" y1="0" x2="304.75" y2="378" fill="rgb(0, 0, 0)" stroke="rgb(60, 60, 60)" stroke-width="1px" opacity="0.25"></line><line x1="365.7" y1="0" x2="365.7" y2="378" fill="rgb(0, 0, 0)" stroke="rgb(60, 60, 60)" stroke-width="1px" opacity="0.25"></line><line x1="426.65000000000003" y1="0" x2="426.65000000000003" y2="378" fill="rgb(0, 0, 0)" stroke="rgb(60, 60, 60)" stroke-width="1px" opacity="0.25"></line><line x1="487.59999999999997" y1="0" x2="487.59999999999997" y2="378" fill="rgb(0, 0, 0)" stroke="rgb(60, 60, 60)" stroke-width="1px" opacity="0.25"></line><line x1="548.55" y1="0" x2="548.55" y2="378" fill="rgb(0, 0, 0)" stroke="rgb(60, 60, 60)" stroke-width="1px" opacity="0.25"></line><line x1="609.5" y1="0" x2="609.5" y2="378" fill="rgb(0, 0, 0)" stroke="rgb(60, 60, 60)" stroke-width="1px" opacity="0.25"></line><line x1="670.4499999999999" y1="0" x2="670.4499999999999" y2="378" fill="rgb(0, 0, 0)" stroke="rgb(60, 60, 60)" stroke-width="1px" opacity="0.25"></line><line x1="731.4" y1="0" x2="731.4" y2="378" fill="rgb(0, 0, 0)" stroke="rgb(60, 60, 60)" stroke-width="1px" opacity="0.25"></line></g><g><line x1="0" y1="378" x2="731.4" y2="378" fill="rgb(0, 0, 0)" stroke="rgb(60, 60, 60)" stroke-width="1px" opacity="0.25"></line><line x1="0" y1="330.75" x2="731.4" y2="330.75" fill="rgb(0, 0, 0)" stroke="rgb(60, 60, 60)" stroke-width="1px" opacity="0.25"></line><line x1="0" y1="283.5" x2="731.4" y2="283.5" fill="rgb(0, 0, 0)" stroke="rgb(60, 60, 60)" stroke-width="1px" opacity="0.25"></line><line x1="0" y1="236.25" x2="731.4" y2="236.25" fill="rgb(0, 0, 0)" stroke="rgb(60, 60, 60)" stroke-width="1px" opacity="0.25"></line><line x1="0" y1="189" x2="731.4" y2="189" fill="rgb(0, 0, 0)" stroke="rgb(60, 60, 60)" stroke-width="1px" opacity="0.25"></line><line x1="0" y1="141.75" x2="731.4" y2="141.75" fill="rgb(0, 0, 0)" stroke="rgb(60, 60, 60)" stroke-width="1px" opacity="0.25"></line><line x1="0" y1="94.5" x2="731.4" y2="94.5" fill="rgb(0, 0, 0)" stroke="rgb(60, 60, 60)" stroke-width="1px" opacity="0.25"></line><line x1="0" y1="47.25" x2="731.4" y2="47.25" fill="rgb(0, 0, 0)" stroke="rgb(60, 60, 60)" stroke-width="1px" opacity="0.25"></line><line x1="0" y1="0" x2="731.4" y2="0" fill="rgb(0, 0, 0)" stroke="rgb(60, 60, 60)" stroke-width="1px" opacity="0.25"></line></g></g></g><g><g><line x1="0" y1="330.75" x2="731.4" y2="330.75" fill="rgb(0, 0, 0)" stroke="rgb(153, 153, 153)" stroke-width="1.5px"></line></g></g><g><g><line x1="60.949999999999996" y1="0" x2="60.949999999999996" y2="378" fill="rgb(0, 0, 0)" stroke="rgb(153, 153, 153)" stroke-width="1.5px"></line></g></g><g><g><g><g><g><path stroke="rgb(0, 119, 187)" stroke-width="2px" d="M60.949999999999996,123.00304555892944L73.14,143.27330213785172L85.33,114.51022017002106L97.52,36.759525418281555L109.71,176.24381893873215L121.89999999999999,184.26780599355698L134.08999999999997,189.89512771368027L146.28,182.45790392160416L158.47,183.66648799180984L170.66,191.32687693834305L182.85,195.1700490117073L195.04,191.7796847820282L207.23,193.86744493246078L219.42,196.994877576828L231.60999999999999,197.97633111476898L243.79999999999998,198.1718738079071L255.98999999999998,198.2671104669571L268.17999999999995,196.6090418100357L280.37,197.15157759189606L292.56,197.99203491210938L304.75,198.59827584028244L316.94,198.55360901355743L329.13,198.5273609161377L341.32,198.9015821814537L353.51,199.20798647403717L365.7,199.0923821926117L377.89000000000004,199.08527380228043L390.08,199.05734717845917L402.27000000000004,199.32000839710236L414.46,199.31500661373138L426.65000000000003,199.35633891820908L438.84,199.34871232509613L451.03000000000003,199.366590321064L463.21999999999997,199.35880601406097L475.41,199.3733607530594L487.59999999999997,199.3831953406334L499.79,199.36926019191742L511.97999999999996,199.3710401058197L524.17,199.36305302381516L536.3599999999999,199.37078100442886L548.55,199.37187373638153L560.74,199.37459993362427L572.93,199.37870049476624L585.12,199.38025510311127L597.31,199.38164073228836L609.5,199.38260954618454L621.6899999999999,199.38395011425018L633.88,199.38574129343033L646.0699999999999,199.38718324899673L658.26,199.3876789212227" style="fill: none;" fill="none"></path></g><g><path stroke="rgb(51, 187, 238)" stroke-width="2px" d="M60.949999999999996,125.1337376832962L73.14,111.16472554206848L85.33,210.65537881851196L97.52,211.01825594902039L109.71,216.1579488515854L121.89999999999999,226.3356317281723L134.08999999999997,233.30120086669922L146.28,232.1534155011177L158.47,232.89767861366272L170.66,230.86404812335968L182.85,234.09771233797073L195.04,236.46409660577774L207.23,236.48488667607307L219.42,236.5406498014927L231.60999999999999,237.01347041130066L243.79999999999998,237.1641322374344L255.98999999999998,236.78454306721687L268.17999999999995,237.13149672746658L280.37,237.28081798553467L292.56,237.41971322894096L304.75,237.49115762114525L316.94,237.57410949468613L329.13,237.4021393954754L341.32,237.37729382514954L353.51,237.34994173049927L365.7,237.4103010892868L377.89000000000004,237.4390444457531L390.08,237.4635013639927L402.27000000000004,237.47919952869415L414.46,237.4821059703827L426.65000000000003,237.47416958212852L438.84,237.47150534391403L451.03000000000003,237.4728853404522L463.21999999999997,237.47353872656822L475.41,237.47329089045525L487.59999999999997,237.47333031892776L499.79,237.47375839948654L511.97999999999996,237.47447937726974L524.17,237.47519472241402L536.3599999999999,237.47535806894302L548.55,237.47538059949875L560.74,237.47549325227737L572.93,237.47559463977814L585.12,237.47563406825066L597.31,237.47572419047356L609.5,237.47570729255676L621.6899999999999,237.47570729255676L633.88,237.47572419047356L646.0699999999999,237.47568476200104L658.26,237.47570729255676" style="fill: none;" fill="none"></path></g><g><path stroke="rgb(204, 51, 17)" stroke-width="2px" d="M60.949999999999996,136.2268145084381L73.14,128.0136834383011L85.33,110.24989485740662L97.52,134.86745595932007L109.71,124.96237027645111L121.89999999999999,97.46231746673584L134.08999999999997,54.80413484573364L146.28,78.00477182865143L158.47,87.69602000713348L170.66,114.4268571138382L182.85,110.94192087650299L195.04,111.17734265327454L207.23,105.45962834358215L219.42,86.87241554260254L231.60999999999999,85.17176413536072L243.79999999999998,93.19361078739166L255.98999999999998,99.8875515460968L268.17999999999995,81.32104432582855L280.37,86.9566798210144L292.56,80.04142141342163L304.75,86.13183617591858L316.94,84.97243630886078L329.13,86.94212508201599L341.32,87.54186594486237L353.51,75.30779671669006L365.7,71.13797664642334L377.89000000000004,68.28867244720459L390.08,70.27147400379181L402.27000000000004,79.0062325000763L414.46,75.67062878608704L426.65000000000003,73.73780000209808L438.84,76.97593653202057L451.03000000000003,75.12273073196411L463.21999999999997,75.62013781070709L475.41,76.25322389602661L487.59999999999997,76.63031780719757L499.79,71.81828677654266L511.97999999999996,76.56610572338104L524.17,72.31769907474518L536.3599999999999,74.31241929531097L548.55,74.7439695596695L560.74,72.71115016937256L572.93,69.36466419696808L585.12,70.70719242095947L597.31,71.32166826725006L609.5,71.93111979961395L621.6899999999999,71.13806676864624L633.88,73.0556423664093L646.0699999999999,68.00478744506836L658.26,71.95018064975739" style="fill: none;" fill="none"></path></g><g><path stroke="rgb(255, 112, 67)" stroke-width="2px" d="M60.949999999999996,311.9549963325262L73.14,315.10084629803896L85.33,316.7239489406347L97.52,317.6418986991048L109.71,318.2667428255081L121.89999999999999,318.60638954490423L134.08999999999997,319.06348664313555L146.28,318.90939313173294L158.47,319.095944724977L170.66,319.3508835956454L182.85,319.36436250060797L195.04,319.0626325942576L207.23,319.1842708401382L219.42,318.7608167901635L231.60999999999999,318.9854224920273L243.79999999999998,318.94922645017505L255.98999999999998,318.60183274000883L268.17999999999995,318.57389344275L280.37,318.3107900619507L292.56,318.1693643555045L304.75,318.09116220474243L316.94,317.4750289544463L329.13,317.8176215440035L341.32,317.5038568004966L353.51,317.1566003859043L365.7,317.1887416318059L377.89000000000004,316.72031588852406L390.08,316.40370666235685L402.27000000000004,316.3003406971693L414.46,316.45586489886045L426.65000000000003,316.3192719966173L438.84,315.7900250181556L451.03000000000003,315.80535002052784L463.21999999999997,315.3655648380518L475.41,315.34914287924767L487.59999999999997,315.05114670842886L499.79,314.63742092996836L511.97999999999996,314.71492885798216L524.17,314.3310518413782L536.3599999999999,314.41374038904905L548.55,314.1072685047984L560.74,314.181926317513L572.93,313.93607007712126L585.12,313.46185820549726L597.31,313.3673960343003L609.5,313.2787523791194L621.6899999999999,312.8452729359269L633.88,312.8827778622508L646.0699999999999,312.6063124537468L658.26,312.38069146871567" style="fill: none;" fill="none"></path></g></g></g></g></g><g><g opacity="0.487919"><span fill="rgb(0, 0, 0)" stroke="none" stroke-width="1px">Alt + Scroll to Zoom</span></g></g></g><g transform="translate(30, 378)" clip-path="url(#clip_1)"><clipPath id="clip_1"><rect width="731" height="22"></rect></clipPath><g><g><line x1="0" y1="0" x2="0" y2="5" style="visibility: inherit;" fill="rgb(0, 0, 0)" stroke="rgb(204, 204, 204)" stroke-width="1px"></line><line x1="60.949999999999996" y1="0" x2="60.949999999999996" y2="5" style="visibility: inherit;" fill="rgb(0, 0, 0)" stroke="rgb(204, 204, 204)" stroke-width="1px"></line><line x1="121.89999999999999" y1="0" x2="121.89999999999999" y2="5" style="visibility: inherit;" fill="rgb(0, 0, 0)" stroke="rgb(204, 204, 204)" stroke-width="1px"></line><line x1="182.85" y1="0" x2="182.85" y2="5" style="visibility: inherit;" fill="rgb(0, 0, 0)" stroke="rgb(204, 204, 204)" stroke-width="1px"></line><line x1="243.79999999999998" y1="0" x2="243.79999999999998" y2="5" style="visibility: inherit;" fill="rgb(0, 0, 0)" stroke="rgb(204, 204, 204)" stroke-width="1px"></line><line x1="304.75" y1="0" x2="304.75" y2="5" style="visibility: inherit;" fill="rgb(0, 0, 0)" stroke="rgb(204, 204, 204)" stroke-width="1px"></line><line x1="365.7" y1="0" x2="365.7" y2="5" style="visibility: inherit;" fill="rgb(0, 0, 0)" stroke="rgb(204, 204, 204)" stroke-width="1px"></line><line x1="426.65000000000003" y1="0" x2="426.65000000000003" y2="5" style="visibility: inherit;" fill="rgb(0, 0, 0)" stroke="rgb(204, 204, 204)" stroke-width="1px"></line><line x1="487.59999999999997" y1="0" x2="487.59999999999997" y2="5" style="visibility: inherit;" fill="rgb(0, 0, 0)" stroke="rgb(204, 204, 204)" stroke-width="1px"></line><line x1="548.55" y1="0" x2="548.55" y2="5" style="visibility: inherit;" fill="rgb(0, 0, 0)" stroke="rgb(204, 204, 204)" stroke-width="1px"></line><line x1="609.5" y1="0" x2="609.5" y2="5" style="visibility: inherit;" fill="rgb(0, 0, 0)" stroke="rgb(204, 204, 204)" stroke-width="1px"></line><line x1="670.4499999999999" y1="0" x2="670.4499999999999" y2="5" style="visibility: inherit;" fill="rgb(0, 0, 0)" stroke="rgb(204, 204, 204)" stroke-width="1px"></line><line x1="731.4" y1="0" x2="731.4" y2="5" style="visibility: inherit;" fill="rgb(0, 0, 0)" stroke="rgb(204, 204, 204)" stroke-width="1px"></line></g><g transform="translate(0, 8)"><text x="0" y="0" dx="0em" dy="0.95em" style="text-anchor: middle; visibility: hidden; font-family: Roboto, sans-serif; font-size: 12px; font-weight: 200;" fill="rgb(50, 49, 63)" stroke="none" stroke-width="1px">-5</text><text x="60.949999999999996" y="0" dx="0em" dy="0.95em" style="text-anchor: middle; visibility: inherit; font-family: Roboto, sans-serif; font-size: 12px; font-weight: 200;" fill="rgb(50, 49, 63)" stroke="none" stroke-width="1px">0</text><text x="121.89999999999999" y="0" dx="0em" dy="0.95em" style="text-anchor: middle; visibility: inherit; font-family: Roboto, sans-serif; font-size: 12px; font-weight: 200;" fill="rgb(50, 49, 63)" stroke="none" stroke-width="1px">5</text><text x="182.85" y="0" dx="0em" dy="0.95em" style="text-anchor: middle; visibility: inherit; font-family: Roboto, sans-serif; font-size: 12px; font-weight: 200;" fill="rgb(50, 49, 63)" stroke="none" stroke-width="1px">10</text><text x="243.79999999999998" y="0" dx="0em" dy="0.95em" style="text-anchor: middle; visibility: inherit; font-family: Roboto, sans-serif; font-size: 12px; font-weight: 200;" fill="rgb(50, 49, 63)" stroke="none" stroke-width="1px">15</text><text x="304.75" y="0" dx="0em" dy="0.95em" style="text-anchor: middle; visibility: inherit; font-family: Roboto, sans-serif; font-size: 12px; font-weight: 200;" fill="rgb(50, 49, 63)" stroke="none" stroke-width="1px">20</text><text x="365.7" y="0" dx="0em" dy="0.95em" style="text-anchor: middle; visibility: inherit; font-family: Roboto, sans-serif; font-size: 12px; font-weight: 200;" fill="rgb(50, 49, 63)" stroke="none" stroke-width="1px">25</text><text x="426.65000000000003" y="0" dx="0em" dy="0.95em" style="text-anchor: middle; visibility: inherit; font-family: Roboto, sans-serif; font-size: 12px; font-weight: 200;" fill="rgb(50, 49, 63)" stroke="none" stroke-width="1px">30</text><text x="487.59999999999997" y="0" dx="0em" dy="0.95em" style="text-anchor: middle; visibility: inherit; font-family: Roboto, sans-serif; font-size: 12px; font-weight: 200;" fill="rgb(50, 49, 63)" stroke="none" stroke-width="1px">35</text><text x="548.55" y="0" dx="0em" dy="0.95em" style="text-anchor: middle; visibility: inherit; font-family: Roboto, sans-serif; font-size: 12px; font-weight: 200;" fill="rgb(50, 49, 63)" stroke="none" stroke-width="1px">40</text><text x="609.5" y="0" dx="0em" dy="0.95em" style="text-anchor: middle; visibility: inherit; font-family: Roboto, sans-serif; font-size: 12px; font-weight: 200;" fill="rgb(50, 49, 63)" stroke="none" stroke-width="1px">45</text><text x="670.4499999999999" y="0" dx="0em" dy="0.95em" style="text-anchor: middle; visibility: inherit; font-family: Roboto, sans-serif; font-size: 12px; font-weight: 200;" fill="rgb(50, 49, 63)" stroke="none" stroke-width="1px">50</text><text x="731.4" y="0" dx="0em" dy="0.95em" style="text-anchor: middle; visibility: hidden; font-family: Roboto, sans-serif; font-size: 12px; font-weight: 200;" fill="rgb(50, 49, 63)" stroke="none" stroke-width="1px">55</text></g><line x1="0" y1="0" x2="731.4" y2="0" fill="rgb(0, 0, 0)" stroke="rgb(204, 204, 204)" stroke-width="1px"></line></g></g></g></g></svg>