<svg viewBox="0 0 761.4000244140625 400" xmlns="http://www.w3.org/2000/svg"><g><g><g><g><g><line x1="30" y1="378" x2="25" y2="378" style="visibility: inherit;" fill="rgb(0, 0, 0)" stroke="rgb(204, 204, 204)" stroke-width="1px"></line><line x1="30" y1="336" x2="25" y2="336" style="visibility: inherit;" fill="rgb(0, 0, 0)" stroke="rgb(204, 204, 204)" stroke-width="1px"></line><line x1="30" y1="294" x2="25" y2="294" style="visibility: inherit;" fill="rgb(0, 0, 0)" stroke="rgb(204, 204, 204)" stroke-width="1px"></line><line x1="30" y1="252.00000000000003" x2="25" y2="252.00000000000003" style="visibility: inherit;" fill="rgb(0, 0, 0)" stroke="rgb(204, 204, 204)" stroke-width="1px"></line><line x1="30" y1="210" x2="25" y2="210" style="visibility: inherit;" fill="rgb(0, 0, 0)" stroke="rgb(204, 204, 204)" stroke-width="1px"></line><line x1="30" y1="168" x2="25" y2="168" style="visibility: inherit;" fill="rgb(0, 0, 0)" stroke="rgb(204, 204, 204)" stroke-width="1px"></line><line x1="30" y1="126.00000000000001" x2="25" y2="126.00000000000001" style="visibility: inherit;" fill="rgb(0, 0, 0)" stroke="rgb(204, 204, 204)" stroke-width="1px"></line><line x1="30" y1="84" x2="25" y2="84" style="visibility: inherit;" fill="rgb(0, 0, 0)" stroke="rgb(204, 204, 204)" stroke-width="1px"></line><line x1="30" y1="42.00000000000002" x2="25" y2="42.00000000000002" style="visibility: inherit;" fill="rgb(0, 0, 0)" stroke="rgb(204, 204, 204)" stroke-width="1px"></line><line x1="30" y1="0" x2="25" y2="0" style="visibility: inherit;" fill="rgb(0, 0, 0)" stroke="rgb(204, 204, 204)" stroke-width="1px"></line></g><g transform="translate(20, 0)"><text x="0" y="378" dx="0em" dy="0.3em" style="text-anchor: end; visibility: hidden; font-family: Roboto, sans-serif; font-size: 12px; font-weight: 200;" fill="rgb(50, 49, 63)" stroke="none" stroke-width="1px">-2</text><text x="0" y="336" dx="0em" dy="0.3em" style="text-anchor: end; visibility: inherit; font-family: Roboto, sans-serif; font-size: 12px; font-weight: 200;" fill="rgb(50, 49, 63)" stroke="none" stroke-width="1px">0</text><text x="0" y="294" dx="0em" dy="0.3em" style="text-anchor: end; visibility: inherit; font-family: Roboto, sans-serif; font-size: 12px; font-weight: 200;" fill="rgb(50, 49, 63)" stroke="none" stroke-width="1px">2</text><text x="0" y="252.00000000000003" dx="0em" dy="0.3em" style="text-anchor: end; visibility: inherit; font-family: Roboto, sans-serif; font-size: 12px; font-weight: 200;" fill="rgb(50, 49, 63)" stroke="none" stroke-width="1px">4</text><text x="0" y="210" dx="0em" dy="0.3em" style="text-anchor: end; visibility: inherit; font-family: Roboto, sans-serif; font-size: 12px; font-weight: 200;" fill="rgb(50, 49, 63)" stroke="none" stroke-width="1px">6</text><text x="0" y="168" dx="0em" dy="0.3em" style="text-anchor: end; visibility: inherit; font-family: Roboto, sans-serif; font-size: 12px; font-weight: 200;" fill="rgb(50, 49, 63)" stroke="none" stroke-width="1px">8</text><text x="0" y="126.00000000000001" dx="0em" dy="0.3em" style="text-anchor: end; visibility: inherit; font-family: Roboto, sans-serif; font-size: 12px; font-weight: 200;" fill="rgb(50, 49, 63)" stroke="none" stroke-width="1px">10</text><text x="0" y="84" dx="0em" dy="0.3em" style="text-anchor: end; visibility: inherit; font-family: Roboto, sans-serif; font-size: 12px; font-weight: 200;" fill="rgb(50, 49, 63)" stroke="none" stroke-width="1px">12</text><text x="0" y="42.00000000000002" dx="0em" dy="0.3em" style="text-anchor: end; visibility: inherit; font-family: Roboto, sans-serif; font-size: 12px; font-weight: 200;" fill="rgb(50, 49, 63)" stroke="none" stroke-width="1px">14</text><text x="0" y="0" dx="0em" dy="0.3em" style="text-anchor: end; visibility: hidden; font-family: Roboto, sans-serif; font-size: 12px; font-weight: 200;" fill="rgb(50, 49, 63)" stroke="none" stroke-width="1px">16</text></g><line x1="30" y1="0" x2="30" y2="378" fill="rgb(0, 0, 0)" stroke="rgb(204, 204, 204)" stroke-width="1px"></line></g></g><g transform="translate(30, 0)" clip-path="url(#clip_0)"><clipPath id="clip_0"><rect width="731" height="378"></rect></clipPath><g><g><g><line x1="0" y1="0" x2="0" y2="378" fill="rgb(0, 0, 0)" stroke="rgb(60, 60, 60)" stroke-width="1px" opacity="0.25"></line><line x1="60.949999999999996" y1="0" x2="60.949999999999996" y2="378" fill="rgb(0, 0, 0)" stroke="rgb(60, 60, 60)" stroke-width="1px" opacity="0.25"></line><line x1="121.89999999999999" y1="0" x2="121.89999999999999" y2="378" fill="rgb(0, 0, 0)" stroke="rgb(60, 60, 60)" stroke-width="1px" opacity="0.25"></line><line x1="182.85" y1="0" x2="182.85" y2="378" fill="rgb(0, 0, 0)" stroke="rgb(60, 60, 60)" stroke-width="1px" opacity="0.25"></line><line x1="243.79999999999998" y1="0" x2="243.79999999999998" y2="378" fill="rgb(0, 0, 0)" stroke="rgb(60, 60, 60)" stroke-width="1px" opacity="0.25"></line><line x1="304.75" y1="0" x2="304.75" y2="378" fill="rgb(0, 0, 0)" stroke="rgb(60, 60, 60)" stroke-width="1px" opacity="0.25"></line><line x1="365.7" y1="0" x2="365.7" y2="378" fill="rgb(0, 0, 0)" stroke="rgb(60, 60, 60)" stroke-width="1px" opacity="0.25"></line><line x1="426.65000000000003" y1="0" x2="426.65000000000003" y2="378" fill="rgb(0, 0, 0)" stroke="rgb(60, 60, 60)" stroke-width="1px" opacity="0.25"></line><line x1="487.59999999999997" y1="0" x2="487.59999999999997" y2="378" fill="rgb(0, 0, 0)" stroke="rgb(60, 60, 60)" stroke-width="1px" opacity="0.25"></line><line x1="548.55" y1="0" x2="548.55" y2="378" fill="rgb(0, 0, 0)" stroke="rgb(60, 60, 60)" stroke-width="1px" opacity="0.25"></line><line x1="609.5" y1="0" x2="609.5" y2="378" fill="rgb(0, 0, 0)" stroke="rgb(60, 60, 60)" stroke-width="1px" opacity="0.25"></line><line x1="670.4499999999999" y1="0" x2="670.4499999999999" y2="378" fill="rgb(0, 0, 0)" stroke="rgb(60, 60, 60)" stroke-width="1px" opacity="0.25"></line><line x1="731.4" y1="0" x2="731.4" y2="378" fill="rgb(0, 0, 0)" stroke="rgb(60, 60, 60)" stroke-width="1px" opacity="0.25"></line></g><g><line x1="0" y1="378" x2="731.4" y2="378" fill="rgb(0, 0, 0)" stroke="rgb(60, 60, 60)" stroke-width="1px" opacity="0.25"></line><line x1="0" y1="336" x2="731.4" y2="336" fill="rgb(0, 0, 0)" stroke="rgb(60, 60, 60)" stroke-width="1px" opacity="0.25"></line><line x1="0" y1="294" x2="731.4" y2="294" fill="rgb(0, 0, 0)" stroke="rgb(60, 60, 60)" stroke-width="1px" opacity="0.25"></line><line x1="0" y1="252.00000000000003" x2="731.4" y2="252.00000000000003" fill="rgb(0, 0, 0)" stroke="rgb(60, 60, 60)" stroke-width="1px" opacity="0.25"></line><line x1="0" y1="210" x2="731.4" y2="210" fill="rgb(0, 0, 0)" stroke="rgb(60, 60, 60)" stroke-width="1px" opacity="0.25"></line><line x1="0" y1="168" x2="731.4" y2="168" fill="rgb(0, 0, 0)" stroke="rgb(60, 60, 60)" stroke-width="1px" opacity="0.25"></line><line x1="0" y1="126.00000000000001" x2="731.4" y2="126.00000000000001" fill="rgb(0, 0, 0)" stroke="rgb(60, 60, 60)" stroke-width="1px" opacity="0.25"></line><line x1="0" y1="84" x2="731.4" y2="84" fill="rgb(0, 0, 0)" stroke="rgb(60, 60, 60)" stroke-width="1px" opacity="0.25"></line><line x1="0" y1="42.00000000000002" x2="731.4" y2="42.00000000000002" fill="rgb(0, 0, 0)" stroke="rgb(60, 60, 60)" stroke-width="1px" opacity="0.25"></line><line x1="0" y1="0" x2="731.4" y2="0" fill="rgb(0, 0, 0)" stroke="rgb(60, 60, 60)" stroke-width="1px" opacity="0.25"></line></g></g></g><g><g><line x1="0" y1="336" x2="731.4" y2="336" fill="rgb(0, 0, 0)" stroke="rgb(153, 153, 153)" stroke-width="1.5px"></line></g></g><g><g><line x1="60.949999999999996" y1="0" x2="60.949999999999996" y2="378" fill="rgb(0, 0, 0)" stroke="rgb(153, 153, 153)" stroke-width="1.5px"></line></g></g><g><g><g><g><g><path stroke="rgb(51, 187, 238)" stroke-width="2px" d="M60.949999999999996,248.02095365524292L73.14,245.84875774383542L85.33,231.75329160690305L97.52,220.81813144683835L109.71,233.85921764373782L121.89999999999999,226.75967931747437L134.08999999999997,215.02023839950564L146.28,226.8641710281372L158.47,204.15364122390747L170.66,216.8707880973816L182.85,207.73481798171994L195.04,196.59910583496094L207.23,194.46621322631833L219.42,198.36536121368408L231.60999999999999,191.8428554534912L243.79999999999998,169.84017562866214L255.98999999999998,192.28256177902222L268.17999999999995,184.45844078063965L280.37,161.2035026550293L292.56,168.90648937225342L304.75,172.48856735229492L316.94,169.64729404449463L329.13,157.91414165496826L341.32,158.24605178833008L353.51,155.7010202407837L365.7,163.00903129577637L377.89000000000004,136.680344581604L390.08,139.95804977416992L402.27000000000004,131.1896381378174L414.46,128.22569847106936L426.65000000000003,115.53680992126466L438.84,130.34078693389893L451.03000000000003,102.3191041946411L463.21999999999997,102.1399211883545L475.41,93.63843154907227L487.59999999999997,75.41125202178955L499.79,83.4211549758911L511.97999999999996,93.25148677825928L524.17,77.58017349243165L536.3599999999999,64.77658939361574L548.55,79.06144237518309L560.74,80.3373327255249L572.93,61.05986881256104L585.12,51.4229393005371L597.31,57.35552501678468L609.5,62.113437652587905L621.6899999999999,37.936609268188455L633.88,41.61643981933596L646.0699999999999,6.805950164794913L658.26,41.830730438232415" style="fill: none;" fill="none"></path></g><g><path stroke="rgb(204, 51, 17)" stroke-width="2px" d="M60.949999999999996,326.1846259832382L73.14,326.5731172263622L85.33,326.56774243712425L97.52,325.39678251743317L109.71,324.8032100200653L121.89999999999999,322.584037899971L134.08999999999997,323.8555410504341L146.28,322.9704519510269L158.47,323.12380492687225L170.66,321.9744561910629L182.85,321.2542431950569L195.04,320.2405534386635L207.23,319.3691241145134L219.42,319.418066740036L231.60999999999999,319.2557653784752L243.79999999999998,316.62643575668335L255.98999999999998,317.59529596567154L268.17999999999995,316.6751993894577L280.37,316.5423016548157L292.56,316.63849210739136L304.75,316.35954254865646L316.94,314.7719957828522L329.13,313.50901794433594L341.32,314.68330550193787L353.51,312.1228805780411L365.7,312.6136085987091L377.89000000000004,313.6889019012451L390.08,311.22481763362885L402.27000000000004,311.76402139663696L414.46,310.47986233234406L426.65000000000003,310.8366411924362L438.84,308.01530492305756L451.03000000000003,310.1672909259796L463.21999999999997,308.61911630630493L475.41,308.63173592090607L487.59999999999997,308.55251348018646L499.79,308.53380060195923L511.97999999999996,306.17298889160156L524.17,308.0169997215271L536.3599999999999,306.1493192911148L548.55,304.64465618133545L560.74,305.2649974822998L572.93,304.8146992921829L585.12,304.62799859046936L597.31,304.41315722465515L609.5,303.7023857831955L621.6899999999999,303.987770318985L633.88,302.98691046237946L646.0699999999999,300.8406422138214L658.26,301.8671844005585" style="fill: none;" fill="none"></path></g><g><path stroke="rgb(255, 112, 67)" stroke-width="2px" d="M60.949999999999996,327.6466650366783L73.14,329.0448205769062L85.33,329.766199529171L97.52,330.1741771996021L109.71,330.45188570022583L121.89999999999999,330.6028397977352L134.08999999999997,330.8059940636158L146.28,330.737508058548L158.47,330.82041987776756L170.66,330.9337260425091L182.85,330.9397166669369L195.04,330.8056144863367L207.23,330.8596759289503L219.42,330.67147412896156L231.60999999999999,330.77129888534546L243.79999999999998,330.75521175563335L255.98999999999998,330.60081455111504L268.17999999999995,330.58839708566666L280.37,330.47146224975586L292.56,330.4086063802242L304.75,330.3738498687744L316.94,330.1000128686428L329.13,330.2522762417793L341.32,330.11282524466515L353.51,329.9584890604019L365.7,329.9727740585804L377.89000000000004,329.764584839344L390.08,329.62386962771416L402.27000000000004,329.5779291987419L414.46,329.6470510661602L426.65000000000003,329.5863431096077L438.84,329.35112223029137L451.03000000000003,329.3579333424568L463.21999999999997,329.16247326135635L475.41,329.15517461299896L487.59999999999997,329.0227318704128L499.79,328.8388537466526L511.97999999999996,328.87330171465874L524.17,328.7026897072792L536.3599999999999,328.7394401729107L548.55,328.6032304465771L560.74,328.63641169667244L572.93,328.52714225649834L585.12,328.31638142466545L597.31,328.2743982374668L609.5,328.2350010573864L621.6899999999999,328.04234352707863L633.88,328.0590123832226L646.0699999999999,327.9361388683319L658.26,327.83586287498474" style="fill: none;" fill="none"></path></g><g><path stroke="rgb(0, 119, 187)" stroke-width="2px" d="M60.949999999999996,313.18478071689606L73.14,321.0081807374954L85.33,323.7635888457298L97.52,325.16859555244446L109.71,326.0387850701809L121.89999999999999,326.6701945066452L134.08999999999997,327.12672489881516L146.28,327.4977743625641L158.47,327.8049321770668L170.66,328.0680102109909L182.85,328.2956508100033L195.04,328.4823233485222L207.23,328.6551740169525L219.42,328.8190068304539L231.60999999999999,328.9498836994171L243.79999999999998,329.07796865701675L255.98999999999998,329.1997988820076L268.17999999999995,329.30190485715866L280.37,329.4073109328747L292.56,329.5025025308132L304.75,329.577240139246L316.94,329.6645767092705L329.13,329.7384750545025L341.32,329.810555934906L353.51,329.86968049407005L365.7,329.9425849914551L377.89000000000004,330.00989627838135L390.08,330.06679594516754L402.27000000000004,330.11722871661186L414.46,330.1701029241085L426.65000000000003,330.2181086540222L438.84,330.26563560962677L451.03000000000003,330.31140768527985L463.21999999999997,330.3428584635258L475.41,330.3935697376728L487.59999999999997,330.43939939141273L499.79,330.46683409810066L511.97999999999996,330.4964354932308L524.17,330.5285515487194L536.3599999999999,330.5583619773388L548.55,330.5945673286915L560.74,330.628047734499L572.93,330.6526129245758L585.12,330.6719616651535L597.31,330.6923161447048L609.5,330.7184772491455L621.6899999999999,330.73181533813477L633.88,330.75679014623165L646.0699999999999,330.77582064270973L658.26,330.78731122612953" style="fill: none;" fill="none"></path></g></g></g></g></g><g><g><span fill="rgb(0, 0, 0)" stroke="none" stroke-width="1px">Alt + Scroll to Zoom</span></g></g></g><g transform="translate(30, 378)" clip-path="url(#clip_1)"><clipPath id="clip_1"><rect width="731" height="22"></rect></clipPath><g><g><line x1="0" y1="0" x2="0" y2="5" style="visibility: inherit;" fill="rgb(0, 0, 0)" stroke="rgb(204, 204, 204)" stroke-width="1px"></line><line x1="60.949999999999996" y1="0" x2="60.949999999999996" y2="5" style="visibility: inherit;" fill="rgb(0, 0, 0)" stroke="rgb(204, 204, 204)" stroke-width="1px"></line><line x1="121.89999999999999" y1="0" x2="121.89999999999999" y2="5" style="visibility: inherit;" fill="rgb(0, 0, 0)" stroke="rgb(204, 204, 204)" stroke-width="1px"></line><line x1="182.85" y1="0" x2="182.85" y2="5" style="visibility: inherit;" fill="rgb(0, 0, 0)" stroke="rgb(204, 204, 204)" stroke-width="1px"></line><line x1="243.79999999999998" y1="0" x2="243.79999999999998" y2="5" style="visibility: inherit;" fill="rgb(0, 0, 0)" stroke="rgb(204, 204, 204)" stroke-width="1px"></line><line x1="304.75" y1="0" x2="304.75" y2="5" style="visibility: inherit;" fill="rgb(0, 0, 0)" stroke="rgb(204, 204, 204)" stroke-width="1px"></line><line x1="365.7" y1="0" x2="365.7" y2="5" style="visibility: inherit;" fill="rgb(0, 0, 0)" stroke="rgb(204, 204, 204)" stroke-width="1px"></line><line x1="426.65000000000003" y1="0" x2="426.65000000000003" y2="5" style="visibility: inherit;" fill="rgb(0, 0, 0)" stroke="rgb(204, 204, 204)" stroke-width="1px"></line><line x1="487.59999999999997" y1="0" x2="487.59999999999997" y2="5" style="visibility: inherit;" fill="rgb(0, 0, 0)" stroke="rgb(204, 204, 204)" stroke-width="1px"></line><line x1="548.55" y1="0" x2="548.55" y2="5" style="visibility: inherit;" fill="rgb(0, 0, 0)" stroke="rgb(204, 204, 204)" stroke-width="1px"></line><line x1="609.5" y1="0" x2="609.5" y2="5" style="visibility: inherit;" fill="rgb(0, 0, 0)" stroke="rgb(204, 204, 204)" stroke-width="1px"></line><line x1="670.4499999999999" y1="0" x2="670.4499999999999" y2="5" style="visibility: inherit;" fill="rgb(0, 0, 0)" stroke="rgb(204, 204, 204)" stroke-width="1px"></line><line x1="731.4" y1="0" x2="731.4" y2="5" style="visibility: inherit;" fill="rgb(0, 0, 0)" stroke="rgb(204, 204, 204)" stroke-width="1px"></line></g><g transform="translate(0, 8)"><text x="0" y="0" dx="0em" dy="0.95em" style="text-anchor: middle; visibility: hidden; font-family: Roboto, sans-serif; font-size: 12px; font-weight: 200;" fill="rgb(50, 49, 63)" stroke="none" stroke-width="1px">-5</text><text x="60.949999999999996" y="0" dx="0em" dy="0.95em" style="text-anchor: middle; visibility: inherit; font-family: Roboto, sans-serif; font-size: 12px; font-weight: 200;" fill="rgb(50, 49, 63)" stroke="none" stroke-width="1px">0</text><text x="121.89999999999999" y="0" dx="0em" dy="0.95em" style="text-anchor: middle; visibility: inherit; font-family: Roboto, sans-serif; font-size: 12px; font-weight: 200;" fill="rgb(50, 49, 63)" stroke="none" stroke-width="1px">5</text><text x="182.85" y="0" dx="0em" dy="0.95em" style="text-anchor: middle; visibility: inherit; font-family: Roboto, sans-serif; font-size: 12px; font-weight: 200;" fill="rgb(50, 49, 63)" stroke="none" stroke-width="1px">10</text><text x="243.79999999999998" y="0" dx="0em" dy="0.95em" style="text-anchor: middle; visibility: inherit; font-family: Roboto, sans-serif; font-size: 12px; font-weight: 200;" fill="rgb(50, 49, 63)" stroke="none" stroke-width="1px">15</text><text x="304.75" y="0" dx="0em" dy="0.95em" style="text-anchor: middle; visibility: inherit; font-family: Roboto, sans-serif; font-size: 12px; font-weight: 200;" fill="rgb(50, 49, 63)" stroke="none" stroke-width="1px">20</text><text x="365.7" y="0" dx="0em" dy="0.95em" style="text-anchor: middle; visibility: inherit; font-family: Roboto, sans-serif; font-size: 12px; font-weight: 200;" fill="rgb(50, 49, 63)" stroke="none" stroke-width="1px">25</text><text x="426.65000000000003" y="0" dx="0em" dy="0.95em" style="text-anchor: middle; visibility: inherit; font-family: Roboto, sans-serif; font-size: 12px; font-weight: 200;" fill="rgb(50, 49, 63)" stroke="none" stroke-width="1px">30</text><text x="487.59999999999997" y="0" dx="0em" dy="0.95em" style="text-anchor: middle; visibility: inherit; font-family: Roboto, sans-serif; font-size: 12px; font-weight: 200;" fill="rgb(50, 49, 63)" stroke="none" stroke-width="1px">35</text><text x="548.55" y="0" dx="0em" dy="0.95em" style="text-anchor: middle; visibility: inherit; font-family: Roboto, sans-serif; font-size: 12px; font-weight: 200;" fill="rgb(50, 49, 63)" stroke="none" stroke-width="1px">40</text><text x="609.5" y="0" dx="0em" dy="0.95em" style="text-anchor: middle; visibility: inherit; font-family: Roboto, sans-serif; font-size: 12px; font-weight: 200;" fill="rgb(50, 49, 63)" stroke="none" stroke-width="1px">45</text><text x="670.4499999999999" y="0" dx="0em" dy="0.95em" style="text-anchor: middle; visibility: inherit; font-family: Roboto, sans-serif; font-size: 12px; font-weight: 200;" fill="rgb(50, 49, 63)" stroke="none" stroke-width="1px">50</text><text x="731.4" y="0" dx="0em" dy="0.95em" style="text-anchor: middle; visibility: hidden; font-family: Roboto, sans-serif; font-size: 12px; font-weight: 200;" fill="rgb(50, 49, 63)" stroke="none" stroke-width="1px">55</text></g><line x1="0" y1="0" x2="731.4" y2="0" fill="rgb(0, 0, 0)" stroke="rgb(204, 204, 204)" stroke-width="1px"></line></g></g></g></g></svg>