<svg viewBox="0 0 761.4000244140625 400" xmlns="http://www.w3.org/2000/svg"><g><g><g><g><g><line x1="50" y1="378" x2="45" y2="378" style="visibility: inherit;" fill="rgb(0, 0, 0)" stroke="rgb(204, 204, 204)" stroke-width="1px"></line><line x1="50" y1="340.2" x2="45" y2="340.2" style="visibility: inherit;" fill="rgb(0, 0, 0)" stroke="rgb(204, 204, 204)" stroke-width="1px"></line><line x1="50" y1="302.40000000000003" x2="45" y2="302.40000000000003" style="visibility: inherit;" fill="rgb(0, 0, 0)" stroke="rgb(204, 204, 204)" stroke-width="1px"></line><line x1="50" y1="264.59999999999997" x2="45" y2="264.59999999999997" style="visibility: inherit;" fill="rgb(0, 0, 0)" stroke="rgb(204, 204, 204)" stroke-width="1px"></line><line x1="50" y1="226.79999999999998" x2="45" y2="226.79999999999998" style="visibility: inherit;" fill="rgb(0, 0, 0)" stroke="rgb(204, 204, 204)" stroke-width="1px"></line><line x1="50" y1="189" x2="45" y2="189" style="visibility: inherit;" fill="rgb(0, 0, 0)" stroke="rgb(204, 204, 204)" stroke-width="1px"></line><line x1="50" y1="151.20000000000002" x2="45" y2="151.20000000000002" style="visibility: inherit;" fill="rgb(0, 0, 0)" stroke="rgb(204, 204, 204)" stroke-width="1px"></line><line x1="50" y1="113.40000000000002" x2="45" y2="113.40000000000002" style="visibility: inherit;" fill="rgb(0, 0, 0)" stroke="rgb(204, 204, 204)" stroke-width="1px"></line><line x1="50" y1="75.59999999999998" x2="45" y2="75.59999999999998" style="visibility: inherit;" fill="rgb(0, 0, 0)" stroke="rgb(204, 204, 204)" stroke-width="1px"></line><line x1="50" y1="37.79999999999999" x2="45" y2="37.79999999999999" style="visibility: inherit;" fill="rgb(0, 0, 0)" stroke="rgb(204, 204, 204)" stroke-width="1px"></line><line x1="50" y1="0" x2="45" y2="0" style="visibility: inherit;" fill="rgb(0, 0, 0)" stroke="rgb(204, 204, 204)" stroke-width="1px"></line></g><g transform="translate(40, 0)"><text x="0" y="378" dx="0em" dy="0.3em" style="text-anchor: end; visibility: hidden; font-family: Roboto, sans-serif; font-size: 12px; font-weight: 200;" fill="rgb(50, 49, 63)" stroke="none" stroke-width="1px">-0.5</text><text x="0" y="340.2" dx="0em" dy="0.3em" style="text-anchor: end; visibility: inherit; font-family: Roboto, sans-serif; font-size: 12px; font-weight: 200;" fill="rgb(50, 49, 63)" stroke="none" stroke-width="1px">0</text><text x="0" y="302.40000000000003" dx="0em" dy="0.3em" style="text-anchor: end; visibility: inherit; font-family: Roboto, sans-serif; font-size: 12px; font-weight: 200;" fill="rgb(50, 49, 63)" stroke="none" stroke-width="1px">0.5</text><text x="0" y="264.59999999999997" dx="0em" dy="0.3em" style="text-anchor: end; visibility: inherit; font-family: Roboto, sans-serif; font-size: 12px; font-weight: 200;" fill="rgb(50, 49, 63)" stroke="none" stroke-width="1px">1</text><text x="0" y="226.79999999999998" dx="0em" dy="0.3em" style="text-anchor: end; visibility: inherit; font-family: Roboto, sans-serif; font-size: 12px; font-weight: 200;" fill="rgb(50, 49, 63)" stroke="none" stroke-width="1px">1.5</text><text x="0" y="189" dx="0em" dy="0.3em" style="text-anchor: end; visibility: inherit; font-family: Roboto, sans-serif; font-size: 12px; font-weight: 200;" fill="rgb(50, 49, 63)" stroke="none" stroke-width="1px">2</text><text x="0" y="151.20000000000002" dx="0em" dy="0.3em" style="text-anchor: end; visibility: inherit; font-family: Roboto, sans-serif; font-size: 12px; font-weight: 200;" fill="rgb(50, 49, 63)" stroke="none" stroke-width="1px">2.5</text><text x="0" y="113.40000000000002" dx="0em" dy="0.3em" style="text-anchor: end; visibility: inherit; font-family: Roboto, sans-serif; font-size: 12px; font-weight: 200;" fill="rgb(50, 49, 63)" stroke="none" stroke-width="1px">3</text><text x="0" y="75.59999999999998" dx="0em" dy="0.3em" style="text-anchor: end; visibility: inherit; font-family: Roboto, sans-serif; font-size: 12px; font-weight: 200;" fill="rgb(50, 49, 63)" stroke="none" stroke-width="1px">3.5</text><text x="0" y="37.79999999999999" dx="0em" dy="0.3em" style="text-anchor: end; visibility: inherit; font-family: Roboto, sans-serif; font-size: 12px; font-weight: 200;" fill="rgb(50, 49, 63)" stroke="none" stroke-width="1px">4</text><text x="0" y="0" dx="0em" dy="0.3em" style="text-anchor: end; visibility: hidden; font-family: Roboto, sans-serif; font-size: 12px; font-weight: 200;" fill="rgb(50, 49, 63)" stroke="none" stroke-width="1px">4.5</text></g><line x1="50" y1="0" x2="50" y2="378" fill="rgb(0, 0, 0)" stroke="rgb(204, 204, 204)" stroke-width="1px"></line></g></g><g transform="translate(50, 0)" clip-path="url(#clip_0)"><clipPath id="clip_0"><rect width="711" height="378"></rect></clipPath><g><g><g><line x1="0" y1="0" x2="0" y2="378" fill="rgb(0, 0, 0)" stroke="rgb(60, 60, 60)" stroke-width="1px" opacity="0.25"></line><line x1="59.28333333333333" y1="0" x2="59.28333333333333" y2="378" fill="rgb(0, 0, 0)" stroke="rgb(60, 60, 60)" stroke-width="1px" opacity="0.25"></line><line x1="118.56666666666666" y1="0" x2="118.56666666666666" y2="378" fill="rgb(0, 0, 0)" stroke="rgb(60, 60, 60)" stroke-width="1px" opacity="0.25"></line><line x1="177.85" y1="0" x2="177.85" y2="378" fill="rgb(0, 0, 0)" stroke="rgb(60, 60, 60)" stroke-width="1px" opacity="0.25"></line><line x1="237.13333333333333" y1="0" x2="237.13333333333333" y2="378" fill="rgb(0, 0, 0)" stroke="rgb(60, 60, 60)" stroke-width="1px" opacity="0.25"></line><line x1="296.4166666666667" y1="0" x2="296.4166666666667" y2="378" fill="rgb(0, 0, 0)" stroke="rgb(60, 60, 60)" stroke-width="1px" opacity="0.25"></line><line x1="355.7" y1="0" x2="355.7" y2="378" fill="rgb(0, 0, 0)" stroke="rgb(60, 60, 60)" stroke-width="1px" opacity="0.25"></line><line x1="414.98333333333335" y1="0" x2="414.98333333333335" y2="378" fill="rgb(0, 0, 0)" stroke="rgb(60, 60, 60)" stroke-width="1px" opacity="0.25"></line><line x1="474.26666666666665" y1="0" x2="474.26666666666665" y2="378" fill="rgb(0, 0, 0)" stroke="rgb(60, 60, 60)" stroke-width="1px" opacity="0.25"></line><line x1="533.55" y1="0" x2="533.55" y2="378" fill="rgb(0, 0, 0)" stroke="rgb(60, 60, 60)" stroke-width="1px" opacity="0.25"></line><line x1="592.8333333333334" y1="0" x2="592.8333333333334" y2="378" fill="rgb(0, 0, 0)" stroke="rgb(60, 60, 60)" stroke-width="1px" opacity="0.25"></line><line x1="652.1166666666667" y1="0" x2="652.1166666666667" y2="378" fill="rgb(0, 0, 0)" stroke="rgb(60, 60, 60)" stroke-width="1px" opacity="0.25"></line><line x1="711.4" y1="0" x2="711.4" y2="378" fill="rgb(0, 0, 0)" stroke="rgb(60, 60, 60)" stroke-width="1px" opacity="0.25"></line></g><g><line x1="0" y1="378" x2="711.4" y2="378" fill="rgb(0, 0, 0)" stroke="rgb(60, 60, 60)" stroke-width="1px" opacity="0.25"></line><line x1="0" y1="340.2" x2="711.4" y2="340.2" fill="rgb(0, 0, 0)" stroke="rgb(60, 60, 60)" stroke-width="1px" opacity="0.25"></line><line x1="0" y1="302.40000000000003" x2="711.4" y2="302.40000000000003" fill="rgb(0, 0, 0)" stroke="rgb(60, 60, 60)" stroke-width="1px" opacity="0.25"></line><line x1="0" y1="264.59999999999997" x2="711.4" y2="264.59999999999997" fill="rgb(0, 0, 0)" stroke="rgb(60, 60, 60)" stroke-width="1px" opacity="0.25"></line><line x1="0" y1="226.79999999999998" x2="711.4" y2="226.79999999999998" fill="rgb(0, 0, 0)" stroke="rgb(60, 60, 60)" stroke-width="1px" opacity="0.25"></line><line x1="0" y1="189" x2="711.4" y2="189" fill="rgb(0, 0, 0)" stroke="rgb(60, 60, 60)" stroke-width="1px" opacity="0.25"></line><line x1="0" y1="151.20000000000002" x2="711.4" y2="151.20000000000002" fill="rgb(0, 0, 0)" stroke="rgb(60, 60, 60)" stroke-width="1px" opacity="0.25"></line><line x1="0" y1="113.40000000000002" x2="711.4" y2="113.40000000000002" fill="rgb(0, 0, 0)" stroke="rgb(60, 60, 60)" stroke-width="1px" opacity="0.25"></line><line x1="0" y1="75.59999999999998" x2="711.4" y2="75.59999999999998" fill="rgb(0, 0, 0)" stroke="rgb(60, 60, 60)" stroke-width="1px" opacity="0.25"></line><line x1="0" y1="37.79999999999999" x2="711.4" y2="37.79999999999999" fill="rgb(0, 0, 0)" stroke="rgb(60, 60, 60)" stroke-width="1px" opacity="0.25"></line><line x1="0" y1="0" x2="711.4" y2="0" fill="rgb(0, 0, 0)" stroke="rgb(60, 60, 60)" stroke-width="1px" opacity="0.25"></line></g></g></g><g><g><line x1="0" y1="340.2" x2="711.4" y2="340.2" fill="rgb(0, 0, 0)" stroke="rgb(153, 153, 153)" stroke-width="1.5px"></line></g></g><g><g><line x1="59.28333333333333" y1="0" x2="59.28333333333333" y2="378" fill="rgb(0, 0, 0)" stroke="rgb(153, 153, 153)" stroke-width="1.5px"></line></g></g><g><g><g><g><g><path stroke="rgb(51, 187, 238)" stroke-width="2px" d="M59.28333333333333,-36.25177230834963L71.14,149.67920551300048L82.99666666666667,179.3278847694397L94.85333333333332,188.74841480255125L106.71,200.52024264335634L118.56666666666666,210.69432063102724L130.42333333333332,214.1947578907013L142.28,214.52228908538817L154.13666666666666,214.73621220588686L165.99333333333334,216.06023383140564L177.85,215.78524389266968L189.70666666666665,216.06008963584898L201.56333333333333,216.35733075141908L213.42,216.36212525367736L225.27666666666664,216.28542222976685L237.13333333333333,216.38958549499512L248.98999999999998,216.3989311695099L260.84666666666664,216.40192322731016L272.7033333333333,216.4216419696808L284.56,216.42806768417358L296.4166666666667,216.4332857608795L308.2733333333333,216.4342861175537L320.13,216.43729619979857L331.9866666666667,216.43904457092285L343.8433333333333,216.43878321647642L355.7,216.43941407203673L367.5566666666667,216.43975653648377L379.4133333333333,216.43968443870543L391.27000000000004,216.43973851203918L403.12666666666667,216.43976554870605L414.98333333333335,216.4397475242615L426.84,216.43972949981688L438.69666666666666,216.4397475242615L450.5533333333333,216.4397475242615L462.41,216.4397475242615L474.26666666666665,216.4397475242615L486.12333333333333,216.4397475242615L497.97999999999996,216.4397475242615L509.83666666666664,216.4397475242615L521.6933333333333,216.4397475242615L533.55,216.4397475242615L545.4066666666666,216.4397475242615L557.2633333333333,216.4397475242615L569.12,216.4397475242615L580.9766666666667,216.4397475242615L592.8333333333334,216.4397475242615L604.6899999999999,216.4397475242615L616.5466666666666,216.4397475242615L628.4033333333333,216.4397475242615L640.26,216.4397475242615" style="fill: none;" fill="none"></path></g><g><path stroke="rgb(238, 51, 119)" stroke-width="2px" d="M59.28333333333333,38.922490310668955L71.14,99.70138607025144L82.99666666666667,128.93265523910523L94.85333333333332,181.3064821243286L106.71,191.85536041259766L118.56666666666666,204.96100616455078L130.42333333333332,207.3593117237091L142.28,206.50470070838927L154.13666666666666,208.6571077823639L165.99333333333334,209.3746519088745L177.85,211.0970498085022L189.70666666666665,211.81456689834593L201.56333333333333,211.84294638633727L213.42,212.66060729026796L225.27666666666664,212.74992742538453L237.13333333333333,212.72022314071657L248.98999999999998,212.7629590988159L260.84666666666664,212.89327583312988L272.7033333333333,212.93031606674194L284.56,213.04584374427796L296.4166666666667,213.03192887306213L308.2733333333333,213.02471008300782L320.13,213.01549057960509L331.9866666666667,213.0221866607666L343.8433333333333,213.02154679298403L355.7,213.0278823852539L367.5566666666667,213.0274317741394L379.4133333333333,213.02693610191344L391.27000000000004,213.0264314174652L403.12666666666667,213.02696313858033L414.98333333333335,213.02657561302183L426.84,213.0267017841339L438.69666666666666,213.02682795524598L450.5533333333333,213.0269721508026L462.41,213.02701721191406L474.26666666666665,213.02701721191406L486.12333333333333,213.02704424858095L497.97999999999996,213.02705326080323L509.83666666666664,213.02705326080323L521.6933333333333,213.02703523635864L533.55,213.02703523635864L545.4066666666666,213.02703523635864L557.2633333333333,213.02703523635864L569.12,213.02703523635864L580.9766666666667,213.02703523635864L592.8333333333334,213.02703523635864L604.6899999999999,213.02703523635864L616.5466666666666,213.02703523635864L628.4033333333333,213.02703523635864L640.26,213.02703523635864" style="fill: none;" fill="none"></path></g><g><path stroke="rgb(204, 51, 17)" stroke-width="2px" d="M59.28333333333333,-30.459833335876432L71.14,82.03566398620607L82.99666666666667,124.08793687820435L94.85333333333332,172.10341701507568L106.71,186.38241806030274L118.56666666666666,188.67579431533815L130.42333333333332,190.762925863266L142.28,198.9914002418518L154.13666666666666,193.84914336204528L165.99333333333334,199.229980802536L177.85,194.8117838859558L189.70666666666665,196.3934018611908L201.56333333333333,199.4370095729828L213.42,200.19176516532897L225.27666666666664,200.20936603546144L237.13333333333333,199.84018936157227L248.98999999999998,201.42262744903564L260.84666666666664,201.6018985748291L272.7033333333333,200.84142022132872L284.56,201.14077019691467L296.4166666666667,201.232009935379L308.2733333333333,201.34569911956785L320.13,201.15574851036072L331.9866666666667,201.1714027404785L343.8433333333333,201.1466281414032L355.7,201.24108524322511L367.5566666666667,201.2167432308197L379.4133333333333,201.2820007324219L391.27000000000004,201.26194853782656L403.12666666666667,201.29615893363953L414.98333333333335,201.28825521469116L426.84,201.2820908546448L438.69666666666666,201.28833632469176L450.5533333333333,201.29190516471863L462.41,201.2964473247528L474.26666666666665,201.296267080307L486.12333333333333,201.29560918807985L497.97999999999996,201.29595165252684L509.83666666666664,201.29801545143127L521.6933333333333,201.2982587814331L533.55,201.29883556365965L545.4066666666666,201.29921407699587L557.2633333333333,201.29965567588806L569.12,201.2996106147766L580.9766666666667,201.29952950477602L592.8333333333334,201.2996106147766L604.6899999999999,201.29963765144348L616.5466666666666,201.29963765144348L628.4033333333333,201.29965567588806L640.26,201.29964666366575" style="fill: none;" fill="none"></path></g><g><path stroke="rgb(0, 119, 187)" stroke-width="2px" d="M59.28333333333333,40.41693305969238L71.14,46.95270481109621L82.99666666666667,102.79373188018799L94.85333333333332,26.270051193237315L106.71,68.52428798675537L118.56666666666666,70.39893836975098L130.42333333333332,65.7984872817993L142.28,75.50913877487183L154.13666666666666,90.08467798233032L165.99333333333334,87.11507863998413L177.85,94.52393646240235L189.70666666666665,82.4583372116089L201.56333333333333,85.7792510032654L213.42,107.16455154418945L225.27666666666664,105.56634206771851L237.13333333333333,81.87986068725586L248.98999999999998,98.9890419960022L260.84666666666664,87.6928702354431L272.7033333333333,91.76918849945066L284.56,82.82365665435789L296.4166666666667,89.26970272064209L308.2733333333333,87.44159145355225L320.13,87.56033649444582L331.9866666666667,86.06039628982542L343.8433333333333,86.62075824737549L355.7,87.78383960723879L367.5566666666667,85.10270347595217L379.4133333333333,88.18291883468628L391.27000000000004,84.22732830047607L403.12666666666667,82.97371015548704L414.98333333333335,84.89592704772947L426.84,86.11560516357422L438.69666666666666,86.31482934951782L450.5533333333333,85.0412941932678L462.41,87.2312822341919L474.26666666666665,85.57571897506712L486.12333333333333,88.22172546386719L497.97999999999996,87.32659549713135L509.83666666666664,88.1654351234436L521.6933333333333,87.07574930191042L533.55,87.63607521057129L545.4066666666666,87.75974092483519L557.2633333333333,85.26193141937256L569.12,87.06105937957766L580.9766666666667,87.47340459823609L592.8333333333334,85.09107770919802L604.6899999999999,85.8379566192627L616.5466666666666,85.44990835189817L628.4033333333333,85.76894102096556L640.26,85.44403238296509" style="fill: none;" fill="none"></path></g><g><path stroke="rgb(255, 112, 67)" stroke-width="2px" d="M59.28333333333333,310.1279941320419L71.14,315.1613540768623L82.99666666666667,317.75831830501556L94.85333333333332,319.22703791856765L106.71,320.226788520813L118.56666666666666,320.77022327184676L130.42333333333332,321.5015786290169L142.28,321.2550290107727L154.13666666666666,321.5535115599632L165.99333333333334,321.9614137530327L177.85,321.98298000097276L189.70666666666665,321.50021215081216L201.56333333333333,321.6948333442211L213.42,321.0173068642616L225.27666666666664,321.3766759872437L237.13333333333333,321.3187623202801L248.98999999999998,320.76293238401416L260.84666666666664,320.71822950839993L272.7033333333333,320.2972640991211L284.56,320.0709829688072L296.4166666666667,319.94585952758786L308.2733333333333,318.96004632711407L320.13,319.5081944704056L331.9866666666667,319.0061708807945L343.8433333333333,318.4505606174469L355.7,318.50198661088945L367.5566666666667,317.7525054216385L379.4133333333333,317.245930659771L391.27000000000004,317.0805451154709L403.12666666666667,317.32938383817674L414.98333333333335,317.1108351945877L426.84,316.2640400290489L438.69666666666666,316.28856003284454L450.5533333333333,315.5849037408829L462.41,315.5586286067963L474.26666666666665,315.0818347334862L486.12333333333333,314.41987348794936L497.97999999999996,314.54388617277147L509.83666666666664,313.9296829462051L521.6933333333333,314.0619846224785L533.55,313.5716296076775L545.4066666666666,313.6910821080208L557.2633333333333,313.297712123394L569.12,312.5389731287956L580.9766666666667,312.3878336548805L592.8333333333334,312.24600380659103L604.6899999999999,311.5524366974831L616.5466666666666,311.6124445796013L628.4033333333333,311.17009992599486L640.26,310.80910634994507" style="fill: none;" fill="none"></path></g></g></g></g></g><g><g><span fill="rgb(0, 0, 0)" stroke="none" stroke-width="1px">Alt + Scroll to Zoom</span></g></g></g><g transform="translate(50, 378)" clip-path="url(#clip_1)"><clipPath id="clip_1"><rect width="711" height="22"></rect></clipPath><g><g><line x1="0" y1="0" x2="0" y2="5" style="visibility: inherit;" fill="rgb(0, 0, 0)" stroke="rgb(204, 204, 204)" stroke-width="1px"></line><line x1="59.28333333333333" y1="0" x2="59.28333333333333" y2="5" style="visibility: inherit;" fill="rgb(0, 0, 0)" stroke="rgb(204, 204, 204)" stroke-width="1px"></line><line x1="118.56666666666666" y1="0" x2="118.56666666666666" y2="5" style="visibility: inherit;" fill="rgb(0, 0, 0)" stroke="rgb(204, 204, 204)" stroke-width="1px"></line><line x1="177.85" y1="0" x2="177.85" y2="5" style="visibility: inherit;" fill="rgb(0, 0, 0)" stroke="rgb(204, 204, 204)" stroke-width="1px"></line><line x1="237.13333333333333" y1="0" x2="237.13333333333333" y2="5" style="visibility: inherit;" fill="rgb(0, 0, 0)" stroke="rgb(204, 204, 204)" stroke-width="1px"></line><line x1="296.4166666666667" y1="0" x2="296.4166666666667" y2="5" style="visibility: inherit;" fill="rgb(0, 0, 0)" stroke="rgb(204, 204, 204)" stroke-width="1px"></line><line x1="355.7" y1="0" x2="355.7" y2="5" style="visibility: inherit;" fill="rgb(0, 0, 0)" stroke="rgb(204, 204, 204)" stroke-width="1px"></line><line x1="414.98333333333335" y1="0" x2="414.98333333333335" y2="5" style="visibility: inherit;" fill="rgb(0, 0, 0)" stroke="rgb(204, 204, 204)" stroke-width="1px"></line><line x1="474.26666666666665" y1="0" x2="474.26666666666665" y2="5" style="visibility: inherit;" fill="rgb(0, 0, 0)" stroke="rgb(204, 204, 204)" stroke-width="1px"></line><line x1="533.55" y1="0" x2="533.55" y2="5" style="visibility: inherit;" fill="rgb(0, 0, 0)" stroke="rgb(204, 204, 204)" stroke-width="1px"></line><line x1="592.8333333333334" y1="0" x2="592.8333333333334" y2="5" style="visibility: inherit;" fill="rgb(0, 0, 0)" stroke="rgb(204, 204, 204)" stroke-width="1px"></line><line x1="652.1166666666667" y1="0" x2="652.1166666666667" y2="5" style="visibility: inherit;" fill="rgb(0, 0, 0)" stroke="rgb(204, 204, 204)" stroke-width="1px"></line><line x1="711.4" y1="0" x2="711.4" y2="5" style="visibility: inherit;" fill="rgb(0, 0, 0)" stroke="rgb(204, 204, 204)" stroke-width="1px"></line></g><g transform="translate(0, 8)"><text x="0" y="0" dx="0em" dy="0.95em" style="text-anchor: middle; visibility: hidden; font-family: Roboto, sans-serif; font-size: 12px; font-weight: 200;" fill="rgb(50, 49, 63)" stroke="none" stroke-width="1px">-5</text><text x="59.28333333333333" y="0" dx="0em" dy="0.95em" style="text-anchor: middle; visibility: inherit; font-family: Roboto, sans-serif; font-size: 12px; font-weight: 200;" fill="rgb(50, 49, 63)" stroke="none" stroke-width="1px">0</text><text x="118.56666666666666" y="0" dx="0em" dy="0.95em" style="text-anchor: middle; visibility: inherit; font-family: Roboto, sans-serif; font-size: 12px; font-weight: 200;" fill="rgb(50, 49, 63)" stroke="none" stroke-width="1px">5</text><text x="177.85" y="0" dx="0em" dy="0.95em" style="text-anchor: middle; visibility: inherit; font-family: Roboto, sans-serif; font-size: 12px; font-weight: 200;" fill="rgb(50, 49, 63)" stroke="none" stroke-width="1px">10</text><text x="237.13333333333333" y="0" dx="0em" dy="0.95em" style="text-anchor: middle; visibility: inherit; font-family: Roboto, sans-serif; font-size: 12px; font-weight: 200;" fill="rgb(50, 49, 63)" stroke="none" stroke-width="1px">15</text><text x="296.4166666666667" y="0" dx="0em" dy="0.95em" style="text-anchor: middle; visibility: inherit; font-family: Roboto, sans-serif; font-size: 12px; font-weight: 200;" fill="rgb(50, 49, 63)" stroke="none" stroke-width="1px">20</text><text x="355.7" y="0" dx="0em" dy="0.95em" style="text-anchor: middle; visibility: inherit; font-family: Roboto, sans-serif; font-size: 12px; font-weight: 200;" fill="rgb(50, 49, 63)" stroke="none" stroke-width="1px">25</text><text x="414.98333333333335" y="0" dx="0em" dy="0.95em" style="text-anchor: middle; visibility: inherit; font-family: Roboto, sans-serif; font-size: 12px; font-weight: 200;" fill="rgb(50, 49, 63)" stroke="none" stroke-width="1px">30</text><text x="474.26666666666665" y="0" dx="0em" dy="0.95em" style="text-anchor: middle; visibility: inherit; font-family: Roboto, sans-serif; font-size: 12px; font-weight: 200;" fill="rgb(50, 49, 63)" stroke="none" stroke-width="1px">35</text><text x="533.55" y="0" dx="0em" dy="0.95em" style="text-anchor: middle; visibility: inherit; font-family: Roboto, sans-serif; font-size: 12px; font-weight: 200;" fill="rgb(50, 49, 63)" stroke="none" stroke-width="1px">40</text><text x="592.8333333333334" y="0" dx="0em" dy="0.95em" style="text-anchor: middle; visibility: inherit; font-family: Roboto, sans-serif; font-size: 12px; font-weight: 200;" fill="rgb(50, 49, 63)" stroke="none" stroke-width="1px">45</text><text x="652.1166666666667" y="0" dx="0em" dy="0.95em" style="text-anchor: middle; visibility: inherit; font-family: Roboto, sans-serif; font-size: 12px; font-weight: 200;" fill="rgb(50, 49, 63)" stroke="none" stroke-width="1px">50</text><text x="711.4" y="0" dx="0em" dy="0.95em" style="text-anchor: middle; visibility: hidden; font-family: Roboto, sans-serif; font-size: 12px; font-weight: 200;" fill="rgb(50, 49, 63)" stroke="none" stroke-width="1px">55</text></g><line x1="0" y1="0" x2="711.4" y2="0" fill="rgb(0, 0, 0)" stroke="rgb(204, 204, 204)" stroke-width="1px"></line></g></g></g></g></svg>