<svg viewBox="0 0 761.4000244140625 400" xmlns="http://www.w3.org/2000/svg"><g><g><g><g><g><line x1="50" y1="378" x2="45" y2="378" style="visibility: inherit;" fill="rgb(0, 0, 0)" stroke="rgb(204, 204, 204)" stroke-width="1px"></line><line x1="50" y1="336.0000000000004" x2="45" y2="336.0000000000004" style="visibility: inherit;" fill="rgb(0, 0, 0)" stroke="rgb(204, 204, 204)" stroke-width="1px"></line><line x1="50" y1="294.0000000000004" x2="45" y2="294.0000000000004" style="visibility: inherit;" fill="rgb(0, 0, 0)" stroke="rgb(204, 204, 204)" stroke-width="1px"></line><line x1="50" y1="252.00000000000028" x2="45" y2="252.00000000000028" style="visibility: inherit;" fill="rgb(0, 0, 0)" stroke="rgb(204, 204, 204)" stroke-width="1px"></line><line x1="50" y1="210.00000000000026" x2="45" y2="210.00000000000026" style="visibility: inherit;" fill="rgb(0, 0, 0)" stroke="rgb(204, 204, 204)" stroke-width="1px"></line><line x1="50" y1="168.0000000000002" x2="45" y2="168.0000000000002" style="visibility: inherit;" fill="rgb(0, 0, 0)" stroke="rgb(204, 204, 204)" stroke-width="1px"></line><line x1="50" y1="126.00000000000014" x2="45" y2="126.00000000000014" style="visibility: inherit;" fill="rgb(0, 0, 0)" stroke="rgb(204, 204, 204)" stroke-width="1px"></line><line x1="50" y1="84.00000000000013" x2="45" y2="84.00000000000013" style="visibility: inherit;" fill="rgb(0, 0, 0)" stroke="rgb(204, 204, 204)" stroke-width="1px"></line><line x1="50" y1="42.000000000000064" x2="45" y2="42.000000000000064" style="visibility: inherit;" fill="rgb(0, 0, 0)" stroke="rgb(204, 204, 204)" stroke-width="1px"></line><line x1="50" y1="0" x2="45" y2="0" style="visibility: inherit;" fill="rgb(0, 0, 0)" stroke="rgb(204, 204, 204)" stroke-width="1px"></line></g><g transform="translate(40, 0)"><text x="0" y="378" dx="0em" dy="0.3em" style="text-anchor: end; visibility: hidden; font-family: Roboto, sans-serif; font-size: 12px; font-weight: 200;" fill="rgb(50, 49, 63)" stroke="none" stroke-width="1px">0.81</text><text x="0" y="336.0000000000004" dx="0em" dy="0.3em" style="text-anchor: end; visibility: inherit; font-family: Roboto, sans-serif; font-size: 12px; font-weight: 200;" fill="rgb(50, 49, 63)" stroke="none" stroke-width="1px">0.82</text><text x="0" y="294.0000000000004" dx="0em" dy="0.3em" style="text-anchor: end; visibility: inherit; font-family: Roboto, sans-serif; font-size: 12px; font-weight: 200;" fill="rgb(50, 49, 63)" stroke="none" stroke-width="1px">0.83</text><text x="0" y="252.00000000000028" dx="0em" dy="0.3em" style="text-anchor: end; visibility: inherit; font-family: Roboto, sans-serif; font-size: 12px; font-weight: 200;" fill="rgb(50, 49, 63)" stroke="none" stroke-width="1px">0.84</text><text x="0" y="210.00000000000026" dx="0em" dy="0.3em" style="text-anchor: end; visibility: inherit; font-family: Roboto, sans-serif; font-size: 12px; font-weight: 200;" fill="rgb(50, 49, 63)" stroke="none" stroke-width="1px">0.85</text><text x="0" y="168.0000000000002" dx="0em" dy="0.3em" style="text-anchor: end; visibility: inherit; font-family: Roboto, sans-serif; font-size: 12px; font-weight: 200;" fill="rgb(50, 49, 63)" stroke="none" stroke-width="1px">0.86</text><text x="0" y="126.00000000000014" dx="0em" dy="0.3em" style="text-anchor: end; visibility: inherit; font-family: Roboto, sans-serif; font-size: 12px; font-weight: 200;" fill="rgb(50, 49, 63)" stroke="none" stroke-width="1px">0.87</text><text x="0" y="84.00000000000013" dx="0em" dy="0.3em" style="text-anchor: end; visibility: inherit; font-family: Roboto, sans-serif; font-size: 12px; font-weight: 200;" fill="rgb(50, 49, 63)" stroke="none" stroke-width="1px">0.88</text><text x="0" y="42.000000000000064" dx="0em" dy="0.3em" style="text-anchor: end; visibility: inherit; font-family: Roboto, sans-serif; font-size: 12px; font-weight: 200;" fill="rgb(50, 49, 63)" stroke="none" stroke-width="1px">0.89</text><text x="0" y="0" dx="0em" dy="0.3em" style="text-anchor: end; visibility: hidden; font-family: Roboto, sans-serif; font-size: 12px; font-weight: 200;" fill="rgb(50, 49, 63)" stroke="none" stroke-width="1px">0.9</text></g><line x1="50" y1="0" x2="50" y2="378" fill="rgb(0, 0, 0)" stroke="rgb(204, 204, 204)" stroke-width="1px"></line></g></g><g transform="translate(50, 0)" clip-path="url(#clip_0)"><clipPath id="clip_0"><rect width="711" height="378"></rect></clipPath><g><g><g><line x1="0" y1="0" x2="0" y2="378" fill="rgb(0, 0, 0)" stroke="rgb(60, 60, 60)" stroke-width="1px" opacity="0.25"></line><line x1="59.28333333333333" y1="0" x2="59.28333333333333" y2="378" fill="rgb(0, 0, 0)" stroke="rgb(60, 60, 60)" stroke-width="1px" opacity="0.25"></line><line x1="118.56666666666666" y1="0" x2="118.56666666666666" y2="378" fill="rgb(0, 0, 0)" stroke="rgb(60, 60, 60)" stroke-width="1px" opacity="0.25"></line><line x1="177.85" y1="0" x2="177.85" y2="378" fill="rgb(0, 0, 0)" stroke="rgb(60, 60, 60)" stroke-width="1px" opacity="0.25"></line><line x1="237.13333333333333" y1="0" x2="237.13333333333333" y2="378" fill="rgb(0, 0, 0)" stroke="rgb(60, 60, 60)" stroke-width="1px" opacity="0.25"></line><line x1="296.4166666666667" y1="0" x2="296.4166666666667" y2="378" fill="rgb(0, 0, 0)" stroke="rgb(60, 60, 60)" stroke-width="1px" opacity="0.25"></line><line x1="355.7" y1="0" x2="355.7" y2="378" fill="rgb(0, 0, 0)" stroke="rgb(60, 60, 60)" stroke-width="1px" opacity="0.25"></line><line x1="414.98333333333335" y1="0" x2="414.98333333333335" y2="378" fill="rgb(0, 0, 0)" stroke="rgb(60, 60, 60)" stroke-width="1px" opacity="0.25"></line><line x1="474.26666666666665" y1="0" x2="474.26666666666665" y2="378" fill="rgb(0, 0, 0)" stroke="rgb(60, 60, 60)" stroke-width="1px" opacity="0.25"></line><line x1="533.55" y1="0" x2="533.55" y2="378" fill="rgb(0, 0, 0)" stroke="rgb(60, 60, 60)" stroke-width="1px" opacity="0.25"></line><line x1="592.8333333333334" y1="0" x2="592.8333333333334" y2="378" fill="rgb(0, 0, 0)" stroke="rgb(60, 60, 60)" stroke-width="1px" opacity="0.25"></line><line x1="652.1166666666667" y1="0" x2="652.1166666666667" y2="378" fill="rgb(0, 0, 0)" stroke="rgb(60, 60, 60)" stroke-width="1px" opacity="0.25"></line><line x1="711.4" y1="0" x2="711.4" y2="378" fill="rgb(0, 0, 0)" stroke="rgb(60, 60, 60)" stroke-width="1px" opacity="0.25"></line></g><g><line x1="0" y1="378" x2="711.4" y2="378" fill="rgb(0, 0, 0)" stroke="rgb(60, 60, 60)" stroke-width="1px" opacity="0.25"></line><line x1="0" y1="336.0000000000004" x2="711.4" y2="336.0000000000004" fill="rgb(0, 0, 0)" stroke="rgb(60, 60, 60)" stroke-width="1px" opacity="0.25"></line><line x1="0" y1="294.0000000000004" x2="711.4" y2="294.0000000000004" fill="rgb(0, 0, 0)" stroke="rgb(60, 60, 60)" stroke-width="1px" opacity="0.25"></line><line x1="0" y1="252.00000000000028" x2="711.4" y2="252.00000000000028" fill="rgb(0, 0, 0)" stroke="rgb(60, 60, 60)" stroke-width="1px" opacity="0.25"></line><line x1="0" y1="210.00000000000026" x2="711.4" y2="210.00000000000026" fill="rgb(0, 0, 0)" stroke="rgb(60, 60, 60)" stroke-width="1px" opacity="0.25"></line><line x1="0" y1="168.0000000000002" x2="711.4" y2="168.0000000000002" fill="rgb(0, 0, 0)" stroke="rgb(60, 60, 60)" stroke-width="1px" opacity="0.25"></line><line x1="0" y1="126.00000000000014" x2="711.4" y2="126.00000000000014" fill="rgb(0, 0, 0)" stroke="rgb(60, 60, 60)" stroke-width="1px" opacity="0.25"></line><line x1="0" y1="84.00000000000013" x2="711.4" y2="84.00000000000013" fill="rgb(0, 0, 0)" stroke="rgb(60, 60, 60)" stroke-width="1px" opacity="0.25"></line><line x1="0" y1="42.000000000000064" x2="711.4" y2="42.000000000000064" fill="rgb(0, 0, 0)" stroke="rgb(60, 60, 60)" stroke-width="1px" opacity="0.25"></line><line x1="0" y1="0" x2="711.4" y2="0" fill="rgb(0, 0, 0)" stroke="rgb(60, 60, 60)" stroke-width="1px" opacity="0.25"></line></g></g></g><g><g><line x1="0" y1="3780.0000000000014" x2="711.4" y2="3780.0000000000014" fill="rgb(0, 0, 0)" stroke="rgb(153, 153, 153)" stroke-width="1.5px"></line></g></g><g><g><line x1="59.28333333333333" y1="0" x2="59.28333333333333" y2="378" fill="rgb(0, 0, 0)" stroke="rgb(153, 153, 153)" stroke-width="1.5px"></line></g></g><g><g><g><g><g><path stroke="rgb(51, 187, 238)" stroke-width="2px" d="M59.28333333333333,421.74907207489036L71.14,301.49924039840715L82.99666666666667,327.73557186126726L94.85333333333332,277.4491238594057L106.71,227.16292619705217L118.56666666666666,187.808554172516L130.42333333333332,233.7220716476442L142.28,198.74012947082537L154.13666666666666,192.18123435974138L165.99333333333334,180.15617609024065L177.85,156.1063098907472L189.70666666666665,156.1063098907472L201.56333333333333,176.87672853469863L213.42,157.19929218292253L225.27666666666664,177.96971082687395L237.13333333333333,183.43562364578264L248.98999999999998,114.56522226333631L260.84666666666664,135.3356409072877L272.7033333333333,167.03788518905654L284.56,124.40406560897841L296.4166666666667,117.84492015838637L308.2733333333333,129.8699784278871L320.13,129.8699784278871L331.9866666666667,130.96296072006237L343.8433333333333,122.21760034561173L355.7,113.47223997116103L367.5566666666667,146.2674665451051L379.4133333333333,120.031135082245L391.27000000000004,120.031135082245L403.12666666666667,140.8015537261964L414.98333333333335,135.3356409072877L426.84,122.21760034561173L438.69666666666666,142.98801898956316L450.5533333333333,148.45393180847185L462.41,141.8947863578798L474.26666666666665,152.8266119956972L486.12333333333333,127.68351316452042L497.97999999999996,117.84492015838637L509.83666666666664,122.21760034561173L521.6933333333333,126.59028053283703L533.55,92.70182132720961L545.4066666666666,136.42887353897106L557.2633333333333,94.88803625106823L569.12,162.66520500183123L580.9766666666667,133.1494259834291L592.8333333333334,109.09930944442762L604.6899999999999,168.13111782073992L616.5466666666666,158.29252481460588L628.4033333333333,204.20604228973406L640.26,122.21760034561173" style="fill: none;" fill="none"></path></g><g><path stroke="rgb(204, 51, 17)" stroke-width="2px" d="M59.28333333333333,280.72882175445574L71.14,243.56066465377825L82.99666666666667,202.01982736587541L94.85333333333332,188.90153646469133L106.71,183.43562364578264L118.56666666666666,214.04488563537615L130.42333333333332,170.31758308410662L142.28,156.1063098907472L154.13666666666666,148.45393180847185L165.99333333333334,138.6153388023378L177.85,142.98801898956316L189.70666666666665,125.49704790115369L201.56333333333333,125.49704790115369L213.42,139.70857143402114L225.27666666666664,115.65845489501964L237.13333333333333,147.3606991767885L248.98999999999998,165.94490289688125L260.84666666666664,144.08125162124648L272.7033333333333,139.70857143402114L284.56,121.12436771392834L296.4166666666667,125.49704790115369L308.2733333333333,132.05619335174578L320.13,165.94490289688125L331.9866666666667,148.45393180847185L343.8433333333333,161.5722227096559L355.7,122.21760034561173L367.5566666666667,118.93815279006972L379.4133333333333,123.31083297729506L391.27000000000004,126.59028053283703L403.12666666666667,126.59028053283703L414.98333333333335,116.75168752670304L426.84,165.94490289688125L438.69666666666666,121.12436771392834L450.5533333333333,146.2674665451051L462.41,117.84492015838637L474.26666666666665,139.70857143402114L486.12333333333333,122.21760034561173L497.97999999999996,133.1494259834291L509.83666666666664,114.56522226333631L521.6933333333333,123.31083297729506L533.55,152.8266119956972L545.4066666666666,141.8947863578798L557.2633333333333,128.77674579620376L569.12,135.3356409072877L580.9766666666667,126.59028053283703L592.8333333333334,136.42887353897106L604.6899999999999,125.49704790115369L616.5466666666666,128.77674579620376L628.4033333333333,126.59028053283703L640.26,112.37900733947768" style="fill: none;" fill="none"></path></g><g><path stroke="rgb(255, 112, 67)" stroke-width="2px" d="M59.28333333333333,338.6673974990847L71.14,268.703763484955L82.99666666666667,208.57897281646746L94.85333333333332,180.15617609024065L106.71,157.19929218292253L118.56666666666666,145.17448425292983L130.42333333333332,122.21760034561173L142.28,115.65845489501964L154.13666666666666,118.93815279006972L165.99333333333334,105.81986188888561L177.85,101.4471817016603L189.70666666666665,97.07450151443496L201.56333333333333,90.51535606384289L213.42,100.35394906997692L225.27666666666664,80.67676305770884L237.13333333333333,79.5835304260255L248.98999999999998,83.95621061325085L260.84666666666664,87.23590850830092L272.7033333333333,93.79480361938488L284.56,82.8629779815675L296.4166666666667,74.11761760711681L308.2733333333333,92.70182132720961L320.13,78.49029779434215L331.9866666666667,82.8629779815675L343.8433333333333,85.0494432449342L355.7,81.76999568939223L367.5566666666667,69.74493741989146L379.4133333333333,86.14267587661753L391.27000000000004,92.70182132720961L403.12666666666667,71.9314026832582L414.98333333333335,71.9314026832582L426.84,90.51535606384289L438.69666666666666,74.11761760711681L450.5533333333333,79.5835304260255L462.41,83.95621061325085L474.26666666666665,77.3970651626588L486.12333333333333,71.9314026832582L497.97999999999996,76.30408287048354L509.83666666666664,86.14267587661753L521.6933333333333,92.70182132720961L533.55,71.9314026832582L545.4066666666666,83.95621061325085L557.2633333333333,68.65170478820812L569.12,71.9314026832582L580.9766666666667,79.5835304260255L592.8333333333334,92.70182132720961L604.6899999999999,80.67676305770884L616.5466666666666,74.11761760711681L628.4033333333333,81.76999568939223L640.26,93.79480361938488" style="fill: none;" fill="none"></path></g><g><path stroke="rgb(0, 119, 187)" stroke-width="2px" d="M106.71,394.4195079803469L118.56666666666666,365.99696159362816L130.42333333333332,345.22654294967674L142.28,323.362891674042L154.13666666666666,315.7105135917665L165.99333333333334,308.0583858489992L177.85,288.38094949722307L189.70666666666665,282.9150366783144L201.56333333333333,273.07644367218035L213.42,266.51754856109636L225.27666666666664,257.7719378471376L237.13333333333333,249.02657747268694L248.98999999999998,241.37419939041155L260.84666666666664,239.1879844665529L272.7033333333333,231.53560638427751L284.56,217.32433319091814L296.4166666666667,210.7651877403261L308.2733333333333,207.4857401847841L320.13,197.64714717865007L331.9866666666667,195.46068191528337L343.8433333333333,189.99476909637468L355.7,179.0629434585573L367.5566666666667,173.5970306396486L379.4133333333333,172.50379800796526L391.27000000000004,168.13111782073992L403.12666666666667,173.5970306396486L414.98333333333335,164.85167026519792L426.84,161.5722227096559L438.69666666666666,159.38575744628923L450.5533333333333,162.66520500183123L462.41,157.19929218292253L474.26666666666665,157.19929218292253L486.12333333333333,158.29252481460588L497.97999999999996,156.1063098907472L509.83666666666664,150.64039707183852L521.6933333333333,148.45393180847185L533.55,149.54716444015517L545.4066666666666,138.6153388023378L557.2633333333333,137.52210617065447L569.12,130.96296072006237L580.9766666666667,135.3356409072877L592.8333333333334,135.3356409072877L604.6899999999999,127.68351316452042L616.5466666666666,126.59028053283703L628.4033333333333,127.68351316452042L640.26,126.59028053283703" style="fill: none;" fill="none"></path></g></g></g></g></g></g><g transform="translate(50, 378)" clip-path="url(#clip_1)"><clipPath id="clip_1"><rect width="711" height="22"></rect></clipPath><g><g><line x1="0" y1="0" x2="0" y2="5" style="visibility: inherit;" fill="rgb(0, 0, 0)" stroke="rgb(204, 204, 204)" stroke-width="1px"></line><line x1="59.28333333333333" y1="0" x2="59.28333333333333" y2="5" style="visibility: inherit;" fill="rgb(0, 0, 0)" stroke="rgb(204, 204, 204)" stroke-width="1px"></line><line x1="118.56666666666666" y1="0" x2="118.56666666666666" y2="5" style="visibility: inherit;" fill="rgb(0, 0, 0)" stroke="rgb(204, 204, 204)" stroke-width="1px"></line><line x1="177.85" y1="0" x2="177.85" y2="5" style="visibility: inherit;" fill="rgb(0, 0, 0)" stroke="rgb(204, 204, 204)" stroke-width="1px"></line><line x1="237.13333333333333" y1="0" x2="237.13333333333333" y2="5" style="visibility: inherit;" fill="rgb(0, 0, 0)" stroke="rgb(204, 204, 204)" stroke-width="1px"></line><line x1="296.4166666666667" y1="0" x2="296.4166666666667" y2="5" style="visibility: inherit;" fill="rgb(0, 0, 0)" stroke="rgb(204, 204, 204)" stroke-width="1px"></line><line x1="355.7" y1="0" x2="355.7" y2="5" style="visibility: inherit;" fill="rgb(0, 0, 0)" stroke="rgb(204, 204, 204)" stroke-width="1px"></line><line x1="414.98333333333335" y1="0" x2="414.98333333333335" y2="5" style="visibility: inherit;" fill="rgb(0, 0, 0)" stroke="rgb(204, 204, 204)" stroke-width="1px"></line><line x1="474.26666666666665" y1="0" x2="474.26666666666665" y2="5" style="visibility: inherit;" fill="rgb(0, 0, 0)" stroke="rgb(204, 204, 204)" stroke-width="1px"></line><line x1="533.55" y1="0" x2="533.55" y2="5" style="visibility: inherit;" fill="rgb(0, 0, 0)" stroke="rgb(204, 204, 204)" stroke-width="1px"></line><line x1="592.8333333333334" y1="0" x2="592.8333333333334" y2="5" style="visibility: inherit;" fill="rgb(0, 0, 0)" stroke="rgb(204, 204, 204)" stroke-width="1px"></line><line x1="652.1166666666667" y1="0" x2="652.1166666666667" y2="5" style="visibility: inherit;" fill="rgb(0, 0, 0)" stroke="rgb(204, 204, 204)" stroke-width="1px"></line><line x1="711.4" y1="0" x2="711.4" y2="5" style="visibility: inherit;" fill="rgb(0, 0, 0)" stroke="rgb(204, 204, 204)" stroke-width="1px"></line></g><g transform="translate(0, 8)"><text x="0" y="0" dx="0em" dy="0.95em" style="text-anchor: middle; visibility: hidden; font-family: Roboto, sans-serif; font-size: 12px; font-weight: 200;" fill="rgb(50, 49, 63)" stroke="none" stroke-width="1px">-5</text><text x="59.28333333333333" y="0" dx="0em" dy="0.95em" style="text-anchor: middle; visibility: inherit; font-family: Roboto, sans-serif; font-size: 12px; font-weight: 200;" fill="rgb(50, 49, 63)" stroke="none" stroke-width="1px">0</text><text x="118.56666666666666" y="0" dx="0em" dy="0.95em" style="text-anchor: middle; visibility: inherit; font-family: Roboto, sans-serif; font-size: 12px; font-weight: 200;" fill="rgb(50, 49, 63)" stroke="none" stroke-width="1px">5</text><text x="177.85" y="0" dx="0em" dy="0.95em" style="text-anchor: middle; visibility: inherit; font-family: Roboto, sans-serif; font-size: 12px; font-weight: 200;" fill="rgb(50, 49, 63)" stroke="none" stroke-width="1px">10</text><text x="237.13333333333333" y="0" dx="0em" dy="0.95em" style="text-anchor: middle; visibility: inherit; font-family: Roboto, sans-serif; font-size: 12px; font-weight: 200;" fill="rgb(50, 49, 63)" stroke="none" stroke-width="1px">15</text><text x="296.4166666666667" y="0" dx="0em" dy="0.95em" style="text-anchor: middle; visibility: inherit; font-family: Roboto, sans-serif; font-size: 12px; font-weight: 200;" fill="rgb(50, 49, 63)" stroke="none" stroke-width="1px">20</text><text x="355.7" y="0" dx="0em" dy="0.95em" style="text-anchor: middle; visibility: inherit; font-family: Roboto, sans-serif; font-size: 12px; font-weight: 200;" fill="rgb(50, 49, 63)" stroke="none" stroke-width="1px">25</text><text x="414.98333333333335" y="0" dx="0em" dy="0.95em" style="text-anchor: middle; visibility: inherit; font-family: Roboto, sans-serif; font-size: 12px; font-weight: 200;" fill="rgb(50, 49, 63)" stroke="none" stroke-width="1px">30</text><text x="474.26666666666665" y="0" dx="0em" dy="0.95em" style="text-anchor: middle; visibility: inherit; font-family: Roboto, sans-serif; font-size: 12px; font-weight: 200;" fill="rgb(50, 49, 63)" stroke="none" stroke-width="1px">35</text><text x="533.55" y="0" dx="0em" dy="0.95em" style="text-anchor: middle; visibility: inherit; font-family: Roboto, sans-serif; font-size: 12px; font-weight: 200;" fill="rgb(50, 49, 63)" stroke="none" stroke-width="1px">40</text><text x="592.8333333333334" y="0" dx="0em" dy="0.95em" style="text-anchor: middle; visibility: inherit; font-family: Roboto, sans-serif; font-size: 12px; font-weight: 200;" fill="rgb(50, 49, 63)" stroke="none" stroke-width="1px">45</text><text x="652.1166666666667" y="0" dx="0em" dy="0.95em" style="text-anchor: middle; visibility: inherit; font-family: Roboto, sans-serif; font-size: 12px; font-weight: 200;" fill="rgb(50, 49, 63)" stroke="none" stroke-width="1px">50</text><text x="711.4" y="0" dx="0em" dy="0.95em" style="text-anchor: middle; visibility: hidden; font-family: Roboto, sans-serif; font-size: 12px; font-weight: 200;" fill="rgb(50, 49, 63)" stroke="none" stroke-width="1px">55</text></g><line x1="0" y1="0" x2="711.4" y2="0" fill="rgb(0, 0, 0)" stroke="rgb(204, 204, 204)" stroke-width="1px"></line></g></g></g></g></svg>