<svg viewBox="0 0 761.4000244140625 400" xmlns="http://www.w3.org/2000/svg"><g><g><g><g><g><line x1="50" y1="378" x2="45" y2="378" style="visibility: inherit;" fill="rgb(0, 0, 0)" stroke="rgb(204, 204, 204)" stroke-width="1px"></line><line x1="50" y1="336.0000000000004" x2="45" y2="336.0000000000004" style="visibility: inherit;" fill="rgb(0, 0, 0)" stroke="rgb(204, 204, 204)" stroke-width="1px"></line><line x1="50" y1="294.0000000000004" x2="45" y2="294.0000000000004" style="visibility: inherit;" fill="rgb(0, 0, 0)" stroke="rgb(204, 204, 204)" stroke-width="1px"></line><line x1="50" y1="252.00000000000028" x2="45" y2="252.00000000000028" style="visibility: inherit;" fill="rgb(0, 0, 0)" stroke="rgb(204, 204, 204)" stroke-width="1px"></line><line x1="50" y1="210.00000000000026" x2="45" y2="210.00000000000026" style="visibility: inherit;" fill="rgb(0, 0, 0)" stroke="rgb(204, 204, 204)" stroke-width="1px"></line><line x1="50" y1="168.0000000000002" x2="45" y2="168.0000000000002" style="visibility: inherit;" fill="rgb(0, 0, 0)" stroke="rgb(204, 204, 204)" stroke-width="1px"></line><line x1="50" y1="126.00000000000014" x2="45" y2="126.00000000000014" style="visibility: inherit;" fill="rgb(0, 0, 0)" stroke="rgb(204, 204, 204)" stroke-width="1px"></line><line x1="50" y1="84.00000000000013" x2="45" y2="84.00000000000013" style="visibility: inherit;" fill="rgb(0, 0, 0)" stroke="rgb(204, 204, 204)" stroke-width="1px"></line><line x1="50" y1="42.000000000000064" x2="45" y2="42.000000000000064" style="visibility: inherit;" fill="rgb(0, 0, 0)" stroke="rgb(204, 204, 204)" stroke-width="1px"></line><line x1="50" y1="0" x2="45" y2="0" style="visibility: inherit;" fill="rgb(0, 0, 0)" stroke="rgb(204, 204, 204)" stroke-width="1px"></line></g><g transform="translate(40, 0)"><text x="0" y="378" dx="0em" dy="0.3em" style="text-anchor: end; visibility: hidden; font-family: Roboto, sans-serif; font-size: 12px; font-weight: 200;" fill="rgb(50, 49, 63)" stroke="none" stroke-width="1px">0.81</text><text x="0" y="336.0000000000004" dx="0em" dy="0.3em" style="text-anchor: end; visibility: inherit; font-family: Roboto, sans-serif; font-size: 12px; font-weight: 200;" fill="rgb(50, 49, 63)" stroke="none" stroke-width="1px">0.82</text><text x="0" y="294.0000000000004" dx="0em" dy="0.3em" style="text-anchor: end; visibility: inherit; font-family: Roboto, sans-serif; font-size: 12px; font-weight: 200;" fill="rgb(50, 49, 63)" stroke="none" stroke-width="1px">0.83</text><text x="0" y="252.00000000000028" dx="0em" dy="0.3em" style="text-anchor: end; visibility: inherit; font-family: Roboto, sans-serif; font-size: 12px; font-weight: 200;" fill="rgb(50, 49, 63)" stroke="none" stroke-width="1px">0.84</text><text x="0" y="210.00000000000026" dx="0em" dy="0.3em" style="text-anchor: end; visibility: inherit; font-family: Roboto, sans-serif; font-size: 12px; font-weight: 200;" fill="rgb(50, 49, 63)" stroke="none" stroke-width="1px">0.85</text><text x="0" y="168.0000000000002" dx="0em" dy="0.3em" style="text-anchor: end; visibility: inherit; font-family: Roboto, sans-serif; font-size: 12px; font-weight: 200;" fill="rgb(50, 49, 63)" stroke="none" stroke-width="1px">0.86</text><text x="0" y="126.00000000000014" dx="0em" dy="0.3em" style="text-anchor: end; visibility: inherit; font-family: Roboto, sans-serif; font-size: 12px; font-weight: 200;" fill="rgb(50, 49, 63)" stroke="none" stroke-width="1px">0.87</text><text x="0" y="84.00000000000013" dx="0em" dy="0.3em" style="text-anchor: end; visibility: inherit; font-family: Roboto, sans-serif; font-size: 12px; font-weight: 200;" fill="rgb(50, 49, 63)" stroke="none" stroke-width="1px">0.88</text><text x="0" y="42.000000000000064" dx="0em" dy="0.3em" style="text-anchor: end; visibility: inherit; font-family: Roboto, sans-serif; font-size: 12px; font-weight: 200;" fill="rgb(50, 49, 63)" stroke="none" stroke-width="1px">0.89</text><text x="0" y="0" dx="0em" dy="0.3em" style="text-anchor: end; visibility: hidden; font-family: Roboto, sans-serif; font-size: 12px; font-weight: 200;" fill="rgb(50, 49, 63)" stroke="none" stroke-width="1px">0.9</text></g><line x1="50" y1="0" x2="50" y2="378" fill="rgb(0, 0, 0)" stroke="rgb(204, 204, 204)" stroke-width="1px"></line></g></g><g transform="translate(50, 0)" clip-path="url(#clip_0)"><clipPath id="clip_0"><rect width="711" height="378"></rect></clipPath><g><g><g><line x1="0" y1="0" x2="0" y2="378" fill="rgb(0, 0, 0)" stroke="rgb(60, 60, 60)" stroke-width="1px" opacity="0.25"></line><line x1="59.28333333333333" y1="0" x2="59.28333333333333" y2="378" fill="rgb(0, 0, 0)" stroke="rgb(60, 60, 60)" stroke-width="1px" opacity="0.25"></line><line x1="118.56666666666666" y1="0" x2="118.56666666666666" y2="378" fill="rgb(0, 0, 0)" stroke="rgb(60, 60, 60)" stroke-width="1px" opacity="0.25"></line><line x1="177.85" y1="0" x2="177.85" y2="378" fill="rgb(0, 0, 0)" stroke="rgb(60, 60, 60)" stroke-width="1px" opacity="0.25"></line><line x1="237.13333333333333" y1="0" x2="237.13333333333333" y2="378" fill="rgb(0, 0, 0)" stroke="rgb(60, 60, 60)" stroke-width="1px" opacity="0.25"></line><line x1="296.4166666666667" y1="0" x2="296.4166666666667" y2="378" fill="rgb(0, 0, 0)" stroke="rgb(60, 60, 60)" stroke-width="1px" opacity="0.25"></line><line x1="355.7" y1="0" x2="355.7" y2="378" fill="rgb(0, 0, 0)" stroke="rgb(60, 60, 60)" stroke-width="1px" opacity="0.25"></line><line x1="414.98333333333335" y1="0" x2="414.98333333333335" y2="378" fill="rgb(0, 0, 0)" stroke="rgb(60, 60, 60)" stroke-width="1px" opacity="0.25"></line><line x1="474.26666666666665" y1="0" x2="474.26666666666665" y2="378" fill="rgb(0, 0, 0)" stroke="rgb(60, 60, 60)" stroke-width="1px" opacity="0.25"></line><line x1="533.55" y1="0" x2="533.55" y2="378" fill="rgb(0, 0, 0)" stroke="rgb(60, 60, 60)" stroke-width="1px" opacity="0.25"></line><line x1="592.8333333333334" y1="0" x2="592.8333333333334" y2="378" fill="rgb(0, 0, 0)" stroke="rgb(60, 60, 60)" stroke-width="1px" opacity="0.25"></line><line x1="652.1166666666667" y1="0" x2="652.1166666666667" y2="378" fill="rgb(0, 0, 0)" stroke="rgb(60, 60, 60)" stroke-width="1px" opacity="0.25"></line><line x1="711.4" y1="0" x2="711.4" y2="378" fill="rgb(0, 0, 0)" stroke="rgb(60, 60, 60)" stroke-width="1px" opacity="0.25"></line></g><g><line x1="0" y1="378" x2="711.4" y2="378" fill="rgb(0, 0, 0)" stroke="rgb(60, 60, 60)" stroke-width="1px" opacity="0.25"></line><line x1="0" y1="336.0000000000004" x2="711.4" y2="336.0000000000004" fill="rgb(0, 0, 0)" stroke="rgb(60, 60, 60)" stroke-width="1px" opacity="0.25"></line><line x1="0" y1="294.0000000000004" x2="711.4" y2="294.0000000000004" fill="rgb(0, 0, 0)" stroke="rgb(60, 60, 60)" stroke-width="1px" opacity="0.25"></line><line x1="0" y1="252.00000000000028" x2="711.4" y2="252.00000000000028" fill="rgb(0, 0, 0)" stroke="rgb(60, 60, 60)" stroke-width="1px" opacity="0.25"></line><line x1="0" y1="210.00000000000026" x2="711.4" y2="210.00000000000026" fill="rgb(0, 0, 0)" stroke="rgb(60, 60, 60)" stroke-width="1px" opacity="0.25"></line><line x1="0" y1="168.0000000000002" x2="711.4" y2="168.0000000000002" fill="rgb(0, 0, 0)" stroke="rgb(60, 60, 60)" stroke-width="1px" opacity="0.25"></line><line x1="0" y1="126.00000000000014" x2="711.4" y2="126.00000000000014" fill="rgb(0, 0, 0)" stroke="rgb(60, 60, 60)" stroke-width="1px" opacity="0.25"></line><line x1="0" y1="84.00000000000013" x2="711.4" y2="84.00000000000013" fill="rgb(0, 0, 0)" stroke="rgb(60, 60, 60)" stroke-width="1px" opacity="0.25"></line><line x1="0" y1="42.000000000000064" x2="711.4" y2="42.000000000000064" fill="rgb(0, 0, 0)" stroke="rgb(60, 60, 60)" stroke-width="1px" opacity="0.25"></line><line x1="0" y1="0" x2="711.4" y2="0" fill="rgb(0, 0, 0)" stroke="rgb(60, 60, 60)" stroke-width="1px" opacity="0.25"></line></g></g></g><g><g><line x1="0" y1="3780.0000000000014" x2="711.4" y2="3780.0000000000014" fill="rgb(0, 0, 0)" stroke="rgb(153, 153, 153)" stroke-width="1.5px"></line></g></g><g><g><line x1="59.28333333333333" y1="0" x2="59.28333333333333" y2="378" fill="rgb(0, 0, 0)" stroke="rgb(153, 153, 153)" stroke-width="1.5px"></line></g></g><g><g><g><g><g><path stroke="rgb(51, 187, 238)" stroke-width="2px" d="M59.28333333333333,473.1285023689273L71.14,217.32433319091814L82.99666666666667,170.31758308410662L94.85333333333332,146.2674665451051L106.71,108.00632715225234L118.56666666666666,76.30408287048354L130.42333333333332,74.11761760711681L142.28,77.3970651626588L154.13666666666666,69.74493741989146L165.99333333333334,51.1607336997987L177.85,51.1607336997987L189.70666666666665,54.44043159484873L201.56333333333333,55.533664226532075L213.42,55.533664226532075L225.27666666666664,56.62664651870739L237.13333333333333,56.62664651870739L248.98999999999998,55.533664226532075L260.84666666666664,55.533664226532075L272.7033333333333,55.533664226532075L284.56,55.533664226532075L296.4166666666667,55.533664226532075L308.2733333333333,55.533664226532075L320.13,55.533664226532075L331.9866666666667,55.533664226532075L343.8433333333333,55.533664226532075L355.7,55.533664226532075L367.5566666666667,55.533664226532075L379.4133333333333,55.533664226532075L391.27000000000004,55.533664226532075L403.12666666666667,55.533664226532075L414.98333333333335,55.533664226532075L426.84,55.533664226532075L438.69666666666666,55.533664226532075L450.5533333333333,55.533664226532075L462.41,55.533664226532075L474.26666666666665,55.533664226532075L486.12333333333333,55.533664226532075L497.97999999999996,55.533664226532075L509.83666666666664,55.533664226532075L521.6933333333333,55.533664226532075L533.55,55.533664226532075L545.4066666666666,55.533664226532075L557.2633333333333,55.533664226532075L569.12,55.533664226532075L580.9766666666667,55.533664226532075L592.8333333333334,55.533664226532075L604.6899999999999,55.533664226532075L616.5466666666666,55.533664226532075L628.4033333333333,55.533664226532075L640.26,55.533664226532075" style="fill: none;" fill="none"></path></g><g><path stroke="rgb(238, 51, 119)" stroke-width="2px" d="M59.28333333333333,405.3513336181643L71.14,314.6172809600832L82.99666666666667,249.02657747268694L94.85333333333332,133.1494259834291L106.71,138.6153388023378L118.56666666666666,75.21085023880015L130.42333333333332,82.8629779815675L142.28,59.906344413757424L154.13666666666666,74.11761760711681L165.99333333333334,80.67676305770884L177.85,70.8381700515748L189.70666666666665,65.37225723266612L201.56333333333333,62.09255933761608L213.42,62.09255933761608L225.27666666666664,67.55847215652477L237.13333333333333,66.46548986434951L248.98999999999998,67.55847215652477L260.84666666666664,68.65170478820812L272.7033333333333,67.55847215652477L284.56,65.37225723266612L296.4166666666667,66.46548986434951L308.2733333333333,67.55847215652477L320.13,67.55847215652477L331.9866666666667,66.46548986434951L343.8433333333333,67.55847215652477L355.7,67.55847215652477L367.5566666666667,67.55847215652477L379.4133333333333,67.55847215652477L391.27000000000004,67.55847215652477L403.12666666666667,67.55847215652477L414.98333333333335,67.55847215652477L426.84,67.55847215652477L438.69666666666666,66.46548986434951L450.5533333333333,66.46548986434951L462.41,66.46548986434951L474.26666666666665,66.46548986434951L486.12333333333333,66.46548986434951L497.97999999999996,66.46548986434951L509.83666666666664,66.46548986434951L521.6933333333333,66.46548986434951L533.55,66.46548986434951L545.4066666666666,66.46548986434951L557.2633333333333,66.46548986434951L569.12,66.46548986434951L580.9766666666667,66.46548986434951L592.8333333333334,66.46548986434951L604.6899999999999,66.46548986434951L616.5466666666666,66.46548986434951L628.4033333333333,66.46548986434951L640.26,66.46548986434951" style="fill: none;" fill="none"></path></g><g><path stroke="rgb(204, 51, 17)" stroke-width="2px" d="M59.28333333333333,478.594415187836L71.14,306.9651532173159L82.99666666666667,232.62883901596086L94.85333333333332,130.96296072006237L106.71,147.3606991767885L118.56666666666666,113.47223997116103L130.42333333333332,79.5835304260255L142.28,76.30408287048354L154.13666666666666,97.07450151443496L165.99333333333334,63.18579196929942L177.85,94.88803625106823L189.70666666666665,88.32889080047619L201.56333333333333,86.14267587661753L213.42,88.32889080047619L225.27666666666664,88.32889080047619L237.13333333333333,88.32889080047619L248.98999999999998,88.32889080047619L260.84666666666664,85.0494432449342L272.7033333333333,79.5835304260255L284.56,83.95621061325085L296.4166666666667,83.95621061325085L308.2733333333333,87.23590850830092L320.13,86.14267587661753L331.9866666666667,85.0494432449342L343.8433333333333,85.0494432449342L355.7,87.23590850830092L367.5566666666667,87.23590850830092L379.4133333333333,87.23590850830092L391.27000000000004,87.23590850830092L403.12666666666667,87.23590850830092L414.98333333333335,87.23590850830092L426.84,87.23590850830092L438.69666666666666,87.23590850830092L450.5533333333333,87.23590850830092L462.41,87.23590850830092L474.26666666666665,87.23590850830092L486.12333333333333,87.23590850830092L497.97999999999996,87.23590850830092L509.83666666666664,87.23590850830092L521.6933333333333,87.23590850830092L533.55,87.23590850830092L545.4066666666666,87.23590850830092L557.2633333333333,87.23590850830092L569.12,87.23590850830092L580.9766666666667,87.23590850830092L592.8333333333334,87.23590850830092L604.6899999999999,87.23590850830092L616.5466666666666,87.23590850830092L628.4033333333333,87.23590850830092L640.26,87.23590850830092" style="fill: none;" fill="none"></path></g><g><path stroke="rgb(0, 119, 187)" stroke-width="2px" d="M59.28333333333333,432.68089771270775L71.14,348.50599050521873L82.99666666666667,240.28121709823628L94.85333333333332,301.49924039840715L106.71,196.55391454696672L118.56666666666666,175.7834959030153L130.42333333333332,162.66520500183123L142.28,155.01307725906386L154.13666666666666,109.09930944442762L165.99333333333334,161.5722227096559L177.85,140.8015537261964L189.70666666666665,130.96296072006237L201.56333333333333,112.37900733947768L213.42,97.07450151443496L225.27666666666664,82.8629779815675L237.13333333333333,150.64039707183852L248.98999999999998,92.70182132720961L260.84666666666664,110.19254207611095L272.7033333333333,95.98126888275158L284.56,121.12436771392834L296.4166666666667,109.09930944442762L308.2733333333333,104.72662925720226L320.13,100.35394906997692L331.9866666666667,116.75168752670304L343.8433333333333,111.2857747077943L355.7,103.633646965027L367.5566666666667,111.2857747077943L379.4133333333333,104.72662925720226L391.27000000000004,116.75168752670304L403.12666666666667,114.56522226333631L414.98333333333335,101.4471817016603L426.84,103.633646965027L438.69666666666666,113.47223997116103L450.5533333333333,105.81986188888561L462.41,100.35394906997692L474.26666666666665,98.1677341461183L486.12333333333333,97.07450151443496L497.97999999999996,102.54041433334365L509.83666666666664,103.633646965027L521.6933333333333,95.98126888275158L533.55,108.00632715225234L545.4066666666666,104.72662925720226L557.2633333333333,111.2857747077943L569.12,108.00632715225234L580.9766666666667,103.633646965027L592.8333333333334,101.4471817016603L604.6899999999999,110.19254207611095L616.5466666666666,113.47223997116103L628.4033333333333,109.09930944442762L640.26,105.81986188888561" style="fill: none;" fill="none"></path></g><g><path stroke="rgb(255, 112, 67)" stroke-width="2px" d="M59.28333333333333,338.6673974990847L71.14,268.703763484955L82.99666666666667,208.57897281646746L94.85333333333332,180.15617609024065L106.71,157.19929218292253L118.56666666666666,145.17448425292983L130.42333333333332,122.21760034561173L142.28,115.65845489501964L154.13666666666666,118.93815279006972L165.99333333333334,105.81986188888561L177.85,101.4471817016603L189.70666666666665,97.07450151443496L201.56333333333333,90.51535606384289L213.42,100.35394906997692L225.27666666666664,80.67676305770884L237.13333333333333,79.5835304260255L248.98999999999998,83.95621061325085L260.84666666666664,87.23590850830092L272.7033333333333,93.79480361938488L284.56,82.8629779815675L296.4166666666667,74.11761760711681L308.2733333333333,92.70182132720961L320.13,78.49029779434215L331.9866666666667,82.8629779815675L343.8433333333333,85.0494432449342L355.7,81.76999568939223L367.5566666666667,69.74493741989146L379.4133333333333,86.14267587661753L391.27000000000004,92.70182132720961L403.12666666666667,71.9314026832582L414.98333333333335,71.9314026832582L426.84,90.51535606384289L438.69666666666666,74.11761760711681L450.5533333333333,79.5835304260255L462.41,83.95621061325085L474.26666666666665,77.3970651626588L486.12333333333333,71.9314026832582L497.97999999999996,76.30408287048354L509.83666666666664,86.14267587661753L521.6933333333333,92.70182132720961L533.55,71.9314026832582L545.4066666666666,83.95621061325085L557.2633333333333,68.65170478820812L569.12,71.9314026832582L580.9766666666667,79.5835304260255L592.8333333333334,92.70182132720961L604.6899999999999,80.67676305770884L616.5466666666666,74.11761760711681L628.4033333333333,81.76999568939223L640.26,93.79480361938488" style="fill: none;" fill="none"></path></g></g></g></g></g><g><g opacity="0.929661"><span fill="rgb(0, 0, 0)" stroke="none" stroke-width="1px">Alt + Scroll to Zoom</span></g></g></g><g transform="translate(50, 378)" clip-path="url(#clip_1)"><clipPath id="clip_1"><rect width="711" height="22"></rect></clipPath><g><g><line x1="0" y1="0" x2="0" y2="5" style="visibility: inherit;" fill="rgb(0, 0, 0)" stroke="rgb(204, 204, 204)" stroke-width="1px"></line><line x1="59.28333333333333" y1="0" x2="59.28333333333333" y2="5" style="visibility: inherit;" fill="rgb(0, 0, 0)" stroke="rgb(204, 204, 204)" stroke-width="1px"></line><line x1="118.56666666666666" y1="0" x2="118.56666666666666" y2="5" style="visibility: inherit;" fill="rgb(0, 0, 0)" stroke="rgb(204, 204, 204)" stroke-width="1px"></line><line x1="177.85" y1="0" x2="177.85" y2="5" style="visibility: inherit;" fill="rgb(0, 0, 0)" stroke="rgb(204, 204, 204)" stroke-width="1px"></line><line x1="237.13333333333333" y1="0" x2="237.13333333333333" y2="5" style="visibility: inherit;" fill="rgb(0, 0, 0)" stroke="rgb(204, 204, 204)" stroke-width="1px"></line><line x1="296.4166666666667" y1="0" x2="296.4166666666667" y2="5" style="visibility: inherit;" fill="rgb(0, 0, 0)" stroke="rgb(204, 204, 204)" stroke-width="1px"></line><line x1="355.7" y1="0" x2="355.7" y2="5" style="visibility: inherit;" fill="rgb(0, 0, 0)" stroke="rgb(204, 204, 204)" stroke-width="1px"></line><line x1="414.98333333333335" y1="0" x2="414.98333333333335" y2="5" style="visibility: inherit;" fill="rgb(0, 0, 0)" stroke="rgb(204, 204, 204)" stroke-width="1px"></line><line x1="474.26666666666665" y1="0" x2="474.26666666666665" y2="5" style="visibility: inherit;" fill="rgb(0, 0, 0)" stroke="rgb(204, 204, 204)" stroke-width="1px"></line><line x1="533.55" y1="0" x2="533.55" y2="5" style="visibility: inherit;" fill="rgb(0, 0, 0)" stroke="rgb(204, 204, 204)" stroke-width="1px"></line><line x1="592.8333333333334" y1="0" x2="592.8333333333334" y2="5" style="visibility: inherit;" fill="rgb(0, 0, 0)" stroke="rgb(204, 204, 204)" stroke-width="1px"></line><line x1="652.1166666666667" y1="0" x2="652.1166666666667" y2="5" style="visibility: inherit;" fill="rgb(0, 0, 0)" stroke="rgb(204, 204, 204)" stroke-width="1px"></line><line x1="711.4" y1="0" x2="711.4" y2="5" style="visibility: inherit;" fill="rgb(0, 0, 0)" stroke="rgb(204, 204, 204)" stroke-width="1px"></line></g><g transform="translate(0, 8)"><text x="0" y="0" dx="0em" dy="0.95em" style="text-anchor: middle; visibility: hidden; font-family: Roboto, sans-serif; font-size: 12px; font-weight: 200;" fill="rgb(50, 49, 63)" stroke="none" stroke-width="1px">-5</text><text x="59.28333333333333" y="0" dx="0em" dy="0.95em" style="text-anchor: middle; visibility: inherit; font-family: Roboto, sans-serif; font-size: 12px; font-weight: 200;" fill="rgb(50, 49, 63)" stroke="none" stroke-width="1px">0</text><text x="118.56666666666666" y="0" dx="0em" dy="0.95em" style="text-anchor: middle; visibility: inherit; font-family: Roboto, sans-serif; font-size: 12px; font-weight: 200;" fill="rgb(50, 49, 63)" stroke="none" stroke-width="1px">5</text><text x="177.85" y="0" dx="0em" dy="0.95em" style="text-anchor: middle; visibility: inherit; font-family: Roboto, sans-serif; font-size: 12px; font-weight: 200;" fill="rgb(50, 49, 63)" stroke="none" stroke-width="1px">10</text><text x="237.13333333333333" y="0" dx="0em" dy="0.95em" style="text-anchor: middle; visibility: inherit; font-family: Roboto, sans-serif; font-size: 12px; font-weight: 200;" fill="rgb(50, 49, 63)" stroke="none" stroke-width="1px">15</text><text x="296.4166666666667" y="0" dx="0em" dy="0.95em" style="text-anchor: middle; visibility: inherit; font-family: Roboto, sans-serif; font-size: 12px; font-weight: 200;" fill="rgb(50, 49, 63)" stroke="none" stroke-width="1px">20</text><text x="355.7" y="0" dx="0em" dy="0.95em" style="text-anchor: middle; visibility: inherit; font-family: Roboto, sans-serif; font-size: 12px; font-weight: 200;" fill="rgb(50, 49, 63)" stroke="none" stroke-width="1px">25</text><text x="414.98333333333335" y="0" dx="0em" dy="0.95em" style="text-anchor: middle; visibility: inherit; font-family: Roboto, sans-serif; font-size: 12px; font-weight: 200;" fill="rgb(50, 49, 63)" stroke="none" stroke-width="1px">30</text><text x="474.26666666666665" y="0" dx="0em" dy="0.95em" style="text-anchor: middle; visibility: inherit; font-family: Roboto, sans-serif; font-size: 12px; font-weight: 200;" fill="rgb(50, 49, 63)" stroke="none" stroke-width="1px">35</text><text x="533.55" y="0" dx="0em" dy="0.95em" style="text-anchor: middle; visibility: inherit; font-family: Roboto, sans-serif; font-size: 12px; font-weight: 200;" fill="rgb(50, 49, 63)" stroke="none" stroke-width="1px">40</text><text x="592.8333333333334" y="0" dx="0em" dy="0.95em" style="text-anchor: middle; visibility: inherit; font-family: Roboto, sans-serif; font-size: 12px; font-weight: 200;" fill="rgb(50, 49, 63)" stroke="none" stroke-width="1px">45</text><text x="652.1166666666667" y="0" dx="0em" dy="0.95em" style="text-anchor: middle; visibility: inherit; font-family: Roboto, sans-serif; font-size: 12px; font-weight: 200;" fill="rgb(50, 49, 63)" stroke="none" stroke-width="1px">50</text><text x="711.4" y="0" dx="0em" dy="0.95em" style="text-anchor: middle; visibility: hidden; font-family: Roboto, sans-serif; font-size: 12px; font-weight: 200;" fill="rgb(50, 49, 63)" stroke="none" stroke-width="1px">55</text></g><line x1="0" y1="0" x2="711.4" y2="0" fill="rgb(0, 0, 0)" stroke="rgb(204, 204, 204)" stroke-width="1px"></line></g></g></g></g></svg>