<svg viewBox="0 0 761.4000244140625 400" xmlns="http://www.w3.org/2000/svg"><g><g><g><g><g><line x1="50" y1="378" x2="45" y2="378" style="visibility: inherit;" fill="rgb(0, 0, 0)" stroke="rgb(204, 204, 204)" stroke-width="1px"></line><line x1="50" y1="336.0000000000004" x2="45" y2="336.0000000000004" style="visibility: inherit;" fill="rgb(0, 0, 0)" stroke="rgb(204, 204, 204)" stroke-width="1px"></line><line x1="50" y1="294.0000000000004" x2="45" y2="294.0000000000004" style="visibility: inherit;" fill="rgb(0, 0, 0)" stroke="rgb(204, 204, 204)" stroke-width="1px"></line><line x1="50" y1="252.00000000000028" x2="45" y2="252.00000000000028" style="visibility: inherit;" fill="rgb(0, 0, 0)" stroke="rgb(204, 204, 204)" stroke-width="1px"></line><line x1="50" y1="210.00000000000026" x2="45" y2="210.00000000000026" style="visibility: inherit;" fill="rgb(0, 0, 0)" stroke="rgb(204, 204, 204)" stroke-width="1px"></line><line x1="50" y1="168.0000000000002" x2="45" y2="168.0000000000002" style="visibility: inherit;" fill="rgb(0, 0, 0)" stroke="rgb(204, 204, 204)" stroke-width="1px"></line><line x1="50" y1="126.00000000000014" x2="45" y2="126.00000000000014" style="visibility: inherit;" fill="rgb(0, 0, 0)" stroke="rgb(204, 204, 204)" stroke-width="1px"></line><line x1="50" y1="84.00000000000013" x2="45" y2="84.00000000000013" style="visibility: inherit;" fill="rgb(0, 0, 0)" stroke="rgb(204, 204, 204)" stroke-width="1px"></line><line x1="50" y1="42.000000000000064" x2="45" y2="42.000000000000064" style="visibility: inherit;" fill="rgb(0, 0, 0)" stroke="rgb(204, 204, 204)" stroke-width="1px"></line><line x1="50" y1="0" x2="45" y2="0" style="visibility: inherit;" fill="rgb(0, 0, 0)" stroke="rgb(204, 204, 204)" stroke-width="1px"></line></g><g transform="translate(40, 0)"><text x="0" y="378" dx="0em" dy="0.3em" style="text-anchor: end; visibility: hidden; font-family: Roboto, sans-serif; font-size: 12px; font-weight: 200;" fill="rgb(50, 49, 63)" stroke="none" stroke-width="1px">0.81</text><text x="0" y="336.0000000000004" dx="0em" dy="0.3em" style="text-anchor: end; visibility: inherit; font-family: Roboto, sans-serif; font-size: 12px; font-weight: 200;" fill="rgb(50, 49, 63)" stroke="none" stroke-width="1px">0.82</text><text x="0" y="294.0000000000004" dx="0em" dy="0.3em" style="text-anchor: end; visibility: inherit; font-family: Roboto, sans-serif; font-size: 12px; font-weight: 200;" fill="rgb(50, 49, 63)" stroke="none" stroke-width="1px">0.83</text><text x="0" y="252.00000000000028" dx="0em" dy="0.3em" style="text-anchor: end; visibility: inherit; font-family: Roboto, sans-serif; font-size: 12px; font-weight: 200;" fill="rgb(50, 49, 63)" stroke="none" stroke-width="1px">0.84</text><text x="0" y="210.00000000000026" dx="0em" dy="0.3em" style="text-anchor: end; visibility: inherit; font-family: Roboto, sans-serif; font-size: 12px; font-weight: 200;" fill="rgb(50, 49, 63)" stroke="none" stroke-width="1px">0.85</text><text x="0" y="168.0000000000002" dx="0em" dy="0.3em" style="text-anchor: end; visibility: inherit; font-family: Roboto, sans-serif; font-size: 12px; font-weight: 200;" fill="rgb(50, 49, 63)" stroke="none" stroke-width="1px">0.86</text><text x="0" y="126.00000000000014" dx="0em" dy="0.3em" style="text-anchor: end; visibility: inherit; font-family: Roboto, sans-serif; font-size: 12px; font-weight: 200;" fill="rgb(50, 49, 63)" stroke="none" stroke-width="1px">0.87</text><text x="0" y="84.00000000000013" dx="0em" dy="0.3em" style="text-anchor: end; visibility: inherit; font-family: Roboto, sans-serif; font-size: 12px; font-weight: 200;" fill="rgb(50, 49, 63)" stroke="none" stroke-width="1px">0.88</text><text x="0" y="42.000000000000064" dx="0em" dy="0.3em" style="text-anchor: end; visibility: inherit; font-family: Roboto, sans-serif; font-size: 12px; font-weight: 200;" fill="rgb(50, 49, 63)" stroke="none" stroke-width="1px">0.89</text><text x="0" y="0" dx="0em" dy="0.3em" style="text-anchor: end; visibility: hidden; font-family: Roboto, sans-serif; font-size: 12px; font-weight: 200;" fill="rgb(50, 49, 63)" stroke="none" stroke-width="1px">0.9</text></g><line x1="50" y1="0" x2="50" y2="378" fill="rgb(0, 0, 0)" stroke="rgb(204, 204, 204)" stroke-width="1px"></line></g></g><g transform="translate(50, 0)" clip-path="url(#clip_0)"><clipPath id="clip_0"><rect width="711" height="378"></rect></clipPath><g><g><g><line x1="0" y1="0" x2="0" y2="378" fill="rgb(0, 0, 0)" stroke="rgb(60, 60, 60)" stroke-width="1px" opacity="0.25"></line><line x1="59.28333333333333" y1="0" x2="59.28333333333333" y2="378" fill="rgb(0, 0, 0)" stroke="rgb(60, 60, 60)" stroke-width="1px" opacity="0.25"></line><line x1="118.56666666666666" y1="0" x2="118.56666666666666" y2="378" fill="rgb(0, 0, 0)" stroke="rgb(60, 60, 60)" stroke-width="1px" opacity="0.25"></line><line x1="177.85" y1="0" x2="177.85" y2="378" fill="rgb(0, 0, 0)" stroke="rgb(60, 60, 60)" stroke-width="1px" opacity="0.25"></line><line x1="237.13333333333333" y1="0" x2="237.13333333333333" y2="378" fill="rgb(0, 0, 0)" stroke="rgb(60, 60, 60)" stroke-width="1px" opacity="0.25"></line><line x1="296.4166666666667" y1="0" x2="296.4166666666667" y2="378" fill="rgb(0, 0, 0)" stroke="rgb(60, 60, 60)" stroke-width="1px" opacity="0.25"></line><line x1="355.7" y1="0" x2="355.7" y2="378" fill="rgb(0, 0, 0)" stroke="rgb(60, 60, 60)" stroke-width="1px" opacity="0.25"></line><line x1="414.98333333333335" y1="0" x2="414.98333333333335" y2="378" fill="rgb(0, 0, 0)" stroke="rgb(60, 60, 60)" stroke-width="1px" opacity="0.25"></line><line x1="474.26666666666665" y1="0" x2="474.26666666666665" y2="378" fill="rgb(0, 0, 0)" stroke="rgb(60, 60, 60)" stroke-width="1px" opacity="0.25"></line><line x1="533.55" y1="0" x2="533.55" y2="378" fill="rgb(0, 0, 0)" stroke="rgb(60, 60, 60)" stroke-width="1px" opacity="0.25"></line><line x1="592.8333333333334" y1="0" x2="592.8333333333334" y2="378" fill="rgb(0, 0, 0)" stroke="rgb(60, 60, 60)" stroke-width="1px" opacity="0.25"></line><line x1="652.1166666666667" y1="0" x2="652.1166666666667" y2="378" fill="rgb(0, 0, 0)" stroke="rgb(60, 60, 60)" stroke-width="1px" opacity="0.25"></line><line x1="711.4" y1="0" x2="711.4" y2="378" fill="rgb(0, 0, 0)" stroke="rgb(60, 60, 60)" stroke-width="1px" opacity="0.25"></line></g><g><line x1="0" y1="378" x2="711.4" y2="378" fill="rgb(0, 0, 0)" stroke="rgb(60, 60, 60)" stroke-width="1px" opacity="0.25"></line><line x1="0" y1="336.0000000000004" x2="711.4" y2="336.0000000000004" fill="rgb(0, 0, 0)" stroke="rgb(60, 60, 60)" stroke-width="1px" opacity="0.25"></line><line x1="0" y1="294.0000000000004" x2="711.4" y2="294.0000000000004" fill="rgb(0, 0, 0)" stroke="rgb(60, 60, 60)" stroke-width="1px" opacity="0.25"></line><line x1="0" y1="252.00000000000028" x2="711.4" y2="252.00000000000028" fill="rgb(0, 0, 0)" stroke="rgb(60, 60, 60)" stroke-width="1px" opacity="0.25"></line><line x1="0" y1="210.00000000000026" x2="711.4" y2="210.00000000000026" fill="rgb(0, 0, 0)" stroke="rgb(60, 60, 60)" stroke-width="1px" opacity="0.25"></line><line x1="0" y1="168.0000000000002" x2="711.4" y2="168.0000000000002" fill="rgb(0, 0, 0)" stroke="rgb(60, 60, 60)" stroke-width="1px" opacity="0.25"></line><line x1="0" y1="126.00000000000014" x2="711.4" y2="126.00000000000014" fill="rgb(0, 0, 0)" stroke="rgb(60, 60, 60)" stroke-width="1px" opacity="0.25"></line><line x1="0" y1="84.00000000000013" x2="711.4" y2="84.00000000000013" fill="rgb(0, 0, 0)" stroke="rgb(60, 60, 60)" stroke-width="1px" opacity="0.25"></line><line x1="0" y1="42.000000000000064" x2="711.4" y2="42.000000000000064" fill="rgb(0, 0, 0)" stroke="rgb(60, 60, 60)" stroke-width="1px" opacity="0.25"></line><line x1="0" y1="0" x2="711.4" y2="0" fill="rgb(0, 0, 0)" stroke="rgb(60, 60, 60)" stroke-width="1px" opacity="0.25"></line></g></g></g><g><g><line x1="0" y1="3780.0000000000014" x2="711.4" y2="3780.0000000000014" fill="rgb(0, 0, 0)" stroke="rgb(153, 153, 153)" stroke-width="1.5px"></line></g></g><g><g><line x1="59.28333333333333" y1="0" x2="59.28333333333333" y2="378" fill="rgb(0, 0, 0)" stroke="rgb(153, 153, 153)" stroke-width="1.5px"></line></g></g><g><g><g><g><g><path stroke="rgb(0, 119, 187)" stroke-width="2px" d="M59.28333333333333,454.5445489883425L71.14,326.6423392295839L82.99666666666667,305.8719205856325L94.85333333333332,341.94684505462664L106.71,159.38575744628923L118.56666666666666,127.68351316452042L130.42333333333332,134.24265861511245L142.28,132.05619335174578L154.13666666666666,118.93815279006972L165.99333333333334,101.4471817016603L177.85,94.88803625106823L189.70666666666665,104.72662925720226L201.56333333333333,90.51535606384289L213.42,81.76999568939223L225.27666666666664,80.67676305770884L237.13333333333333,74.11761760711681L248.98999999999998,74.11761760711681L260.84666666666664,85.0494432449342L272.7033333333333,69.74493741989146L284.56,68.65170478820812L296.4166666666667,75.21085023880015L308.2733333333333,76.30408287048354L320.13,70.8381700515748L331.9866666666667,73.02438497543346L343.8433333333333,74.11761760711681L355.7,74.11761760711681L367.5566666666667,74.11761760711681L379.4133333333333,70.8381700515748L391.27000000000004,75.21085023880015L403.12666666666667,75.21085023880015L414.98333333333335,71.9314026832582L426.84,71.9314026832582L438.69666666666666,71.9314026832582L450.5533333333333,73.02438497543346L462.41,73.02438497543346L474.26666666666665,73.02438497543346L486.12333333333333,73.02438497543346L497.97999999999996,73.02438497543346L509.83666666666664,73.02438497543346L521.6933333333333,73.02438497543346L533.55,73.02438497543346L545.4066666666666,73.02438497543346L557.2633333333333,73.02438497543346L569.12,73.02438497543346L580.9766666666667,73.02438497543346L592.8333333333334,73.02438497543346L604.6899999999999,73.02438497543346L616.5466666666666,73.02438497543346L628.4033333333333,73.02438497543346L640.26,73.02438497543346" style="fill: none;" fill="none"></path></g><g><path stroke="rgb(51, 187, 238)" stroke-width="2px" d="M59.28333333333333,475.31496763229393L71.14,376.92878723144554L82.99666666666667,173.5970306396486L94.85333333333332,173.5970306396486L106.71,162.66520500183123L118.56666666666666,108.00632715225234L130.42333333333332,98.1677341461183L142.28,91.60858869552627L154.13666666666666,99.26071643829357L165.99333333333334,99.26071643829357L177.85,95.98126888275158L189.70666666666665,87.23590850830092L201.56333333333333,80.67676305770884L213.42,81.76999568939223L225.27666666666664,81.76999568939223L237.13333333333333,79.5835304260255L248.98999999999998,73.02438497543346L260.84666666666664,69.74493741989146L272.7033333333333,73.02438497543346L284.56,71.9314026832582L296.4166666666667,70.8381700515748L308.2733333333333,70.8381700515748L320.13,71.9314026832582L331.9866666666667,71.9314026832582L343.8433333333333,73.02438497543346L355.7,71.9314026832582L367.5566666666667,73.02438497543346L379.4133333333333,73.02438497543346L391.27000000000004,73.02438497543346L403.12666666666667,73.02438497543346L414.98333333333335,73.02438497543346L426.84,73.02438497543346L438.69666666666666,73.02438497543346L450.5533333333333,73.02438497543346L462.41,73.02438497543346L474.26666666666665,73.02438497543346L486.12333333333333,73.02438497543346L497.97999999999996,73.02438497543346L509.83666666666664,73.02438497543346L521.6933333333333,73.02438497543346L533.55,73.02438497543346L545.4066666666666,73.02438497543346L557.2633333333333,73.02438497543346L569.12,73.02438497543346L580.9766666666667,73.02438497543346L592.8333333333334,73.02438497543346L604.6899999999999,73.02438497543346L616.5466666666666,73.02438497543346L628.4033333333333,73.02438497543346L640.26,73.02438497543346" style="fill: none;" fill="none"></path></g><g><path stroke="rgb(204, 51, 17)" stroke-width="2px" d="M59.28333333333333,417.376391887665L71.14,345.22654294967674L82.99666666666667,309.1513681411745L94.85333333333332,234.8153042793276L106.71,195.46068191528337L118.56666666666666,234.8153042793276L130.42333333333332,214.04488563537615L142.28,167.03788518905654L154.13666666666666,192.18123435974138L165.99333333333334,124.40406560897841L177.85,108.00632715225234L189.70666666666665,127.68351316452042L201.56333333333333,95.98126888275158L213.42,130.96296072006237L225.27666666666664,148.45393180847185L237.13333333333333,117.84492015838637L248.98999999999998,113.47223997116103L260.84666666666664,133.1494259834291L272.7033333333333,130.96296072006237L284.56,120.031135082245L296.4166666666667,103.633646965027L308.2733333333333,108.00632715225234L320.13,108.00632715225234L331.9866666666667,110.19254207611095L343.8433333333333,108.00632715225234L355.7,116.75168752670304L367.5566666666667,109.09930944442762L379.4133333333333,110.19254207611095L391.27000000000004,88.32889080047619L403.12666666666667,97.07450151443496L414.98333333333335,98.1677341461183L426.84,91.60858869552627L438.69666666666666,100.35394906997692L450.5533333333333,94.88803625106823L462.41,93.79480361938488L474.26666666666665,103.633646965027L486.12333333333333,100.35394906997692L497.97999999999996,98.1677341461183L509.83666666666664,97.07450151443496L521.6933333333333,102.54041433334365L533.55,93.79480361938488L545.4066666666666,99.26071643829357L557.2633333333333,102.54041433334365L569.12,102.54041433334365L580.9766666666667,103.633646965027L592.8333333333334,105.81986188888561L604.6899999999999,108.00632715225234L616.5466666666666,98.1677341461183L628.4033333333333,97.07450151443496L640.26,94.88803625106823" style="fill: none;" fill="none"></path></g><g><path stroke="rgb(255, 112, 67)" stroke-width="2px" d="M59.28333333333333,338.6673974990847L71.14,268.703763484955L82.99666666666667,208.57897281646746L94.85333333333332,180.15617609024065L106.71,157.19929218292253L118.56666666666666,145.17448425292983L130.42333333333332,122.21760034561173L142.28,115.65845489501964L154.13666666666666,118.93815279006972L165.99333333333334,105.81986188888561L177.85,101.4471817016603L189.70666666666665,97.07450151443496L201.56333333333333,90.51535606384289L213.42,100.35394906997692L225.27666666666664,80.67676305770884L237.13333333333333,79.5835304260255L248.98999999999998,83.95621061325085L260.84666666666664,87.23590850830092L272.7033333333333,93.79480361938488L284.56,82.8629779815675L296.4166666666667,74.11761760711681L308.2733333333333,92.70182132720961L320.13,78.49029779434215L331.9866666666667,82.8629779815675L343.8433333333333,85.0494432449342L355.7,81.76999568939223L367.5566666666667,69.74493741989146L379.4133333333333,86.14267587661753L391.27000000000004,92.70182132720961L403.12666666666667,71.9314026832582L414.98333333333335,71.9314026832582L426.84,90.51535606384289L438.69666666666666,74.11761760711681L450.5533333333333,79.5835304260255L462.41,83.95621061325085L474.26666666666665,77.3970651626588L486.12333333333333,71.9314026832582L497.97999999999996,76.30408287048354L509.83666666666664,86.14267587661753L521.6933333333333,92.70182132720961L533.55,71.9314026832582L545.4066666666666,83.95621061325085L557.2633333333333,68.65170478820812L569.12,71.9314026832582L580.9766666666667,79.5835304260255L592.8333333333334,92.70182132720961L604.6899999999999,80.67676305770884L616.5466666666666,74.11761760711681L628.4033333333333,81.76999568939223L640.26,93.79480361938488" style="fill: none;" fill="none"></path></g></g></g></g></g></g><g transform="translate(50, 378)" clip-path="url(#clip_1)"><clipPath id="clip_1"><rect width="711" height="22"></rect></clipPath><g><g><line x1="0" y1="0" x2="0" y2="5" style="visibility: inherit;" fill="rgb(0, 0, 0)" stroke="rgb(204, 204, 204)" stroke-width="1px"></line><line x1="59.28333333333333" y1="0" x2="59.28333333333333" y2="5" style="visibility: inherit;" fill="rgb(0, 0, 0)" stroke="rgb(204, 204, 204)" stroke-width="1px"></line><line x1="118.56666666666666" y1="0" x2="118.56666666666666" y2="5" style="visibility: inherit;" fill="rgb(0, 0, 0)" stroke="rgb(204, 204, 204)" stroke-width="1px"></line><line x1="177.85" y1="0" x2="177.85" y2="5" style="visibility: inherit;" fill="rgb(0, 0, 0)" stroke="rgb(204, 204, 204)" stroke-width="1px"></line><line x1="237.13333333333333" y1="0" x2="237.13333333333333" y2="5" style="visibility: inherit;" fill="rgb(0, 0, 0)" stroke="rgb(204, 204, 204)" stroke-width="1px"></line><line x1="296.4166666666667" y1="0" x2="296.4166666666667" y2="5" style="visibility: inherit;" fill="rgb(0, 0, 0)" stroke="rgb(204, 204, 204)" stroke-width="1px"></line><line x1="355.7" y1="0" x2="355.7" y2="5" style="visibility: inherit;" fill="rgb(0, 0, 0)" stroke="rgb(204, 204, 204)" stroke-width="1px"></line><line x1="414.98333333333335" y1="0" x2="414.98333333333335" y2="5" style="visibility: inherit;" fill="rgb(0, 0, 0)" stroke="rgb(204, 204, 204)" stroke-width="1px"></line><line x1="474.26666666666665" y1="0" x2="474.26666666666665" y2="5" style="visibility: inherit;" fill="rgb(0, 0, 0)" stroke="rgb(204, 204, 204)" stroke-width="1px"></line><line x1="533.55" y1="0" x2="533.55" y2="5" style="visibility: inherit;" fill="rgb(0, 0, 0)" stroke="rgb(204, 204, 204)" stroke-width="1px"></line><line x1="592.8333333333334" y1="0" x2="592.8333333333334" y2="5" style="visibility: inherit;" fill="rgb(0, 0, 0)" stroke="rgb(204, 204, 204)" stroke-width="1px"></line><line x1="652.1166666666667" y1="0" x2="652.1166666666667" y2="5" style="visibility: inherit;" fill="rgb(0, 0, 0)" stroke="rgb(204, 204, 204)" stroke-width="1px"></line><line x1="711.4" y1="0" x2="711.4" y2="5" style="visibility: inherit;" fill="rgb(0, 0, 0)" stroke="rgb(204, 204, 204)" stroke-width="1px"></line></g><g transform="translate(0, 8)"><text x="0" y="0" dx="0em" dy="0.95em" style="text-anchor: middle; visibility: hidden; font-family: Roboto, sans-serif; font-size: 12px; font-weight: 200;" fill="rgb(50, 49, 63)" stroke="none" stroke-width="1px">-5</text><text x="59.28333333333333" y="0" dx="0em" dy="0.95em" style="text-anchor: middle; visibility: inherit; font-family: Roboto, sans-serif; font-size: 12px; font-weight: 200;" fill="rgb(50, 49, 63)" stroke="none" stroke-width="1px">0</text><text x="118.56666666666666" y="0" dx="0em" dy="0.95em" style="text-anchor: middle; visibility: inherit; font-family: Roboto, sans-serif; font-size: 12px; font-weight: 200;" fill="rgb(50, 49, 63)" stroke="none" stroke-width="1px">5</text><text x="177.85" y="0" dx="0em" dy="0.95em" style="text-anchor: middle; visibility: inherit; font-family: Roboto, sans-serif; font-size: 12px; font-weight: 200;" fill="rgb(50, 49, 63)" stroke="none" stroke-width="1px">10</text><text x="237.13333333333333" y="0" dx="0em" dy="0.95em" style="text-anchor: middle; visibility: inherit; font-family: Roboto, sans-serif; font-size: 12px; font-weight: 200;" fill="rgb(50, 49, 63)" stroke="none" stroke-width="1px">15</text><text x="296.4166666666667" y="0" dx="0em" dy="0.95em" style="text-anchor: middle; visibility: inherit; font-family: Roboto, sans-serif; font-size: 12px; font-weight: 200;" fill="rgb(50, 49, 63)" stroke="none" stroke-width="1px">20</text><text x="355.7" y="0" dx="0em" dy="0.95em" style="text-anchor: middle; visibility: inherit; font-family: Roboto, sans-serif; font-size: 12px; font-weight: 200;" fill="rgb(50, 49, 63)" stroke="none" stroke-width="1px">25</text><text x="414.98333333333335" y="0" dx="0em" dy="0.95em" style="text-anchor: middle; visibility: inherit; font-family: Roboto, sans-serif; font-size: 12px; font-weight: 200;" fill="rgb(50, 49, 63)" stroke="none" stroke-width="1px">30</text><text x="474.26666666666665" y="0" dx="0em" dy="0.95em" style="text-anchor: middle; visibility: inherit; font-family: Roboto, sans-serif; font-size: 12px; font-weight: 200;" fill="rgb(50, 49, 63)" stroke="none" stroke-width="1px">35</text><text x="533.55" y="0" dx="0em" dy="0.95em" style="text-anchor: middle; visibility: inherit; font-family: Roboto, sans-serif; font-size: 12px; font-weight: 200;" fill="rgb(50, 49, 63)" stroke="none" stroke-width="1px">40</text><text x="592.8333333333334" y="0" dx="0em" dy="0.95em" style="text-anchor: middle; visibility: inherit; font-family: Roboto, sans-serif; font-size: 12px; font-weight: 200;" fill="rgb(50, 49, 63)" stroke="none" stroke-width="1px">45</text><text x="652.1166666666667" y="0" dx="0em" dy="0.95em" style="text-anchor: middle; visibility: inherit; font-family: Roboto, sans-serif; font-size: 12px; font-weight: 200;" fill="rgb(50, 49, 63)" stroke="none" stroke-width="1px">50</text><text x="711.4" y="0" dx="0em" dy="0.95em" style="text-anchor: middle; visibility: hidden; font-family: Roboto, sans-serif; font-size: 12px; font-weight: 200;" fill="rgb(50, 49, 63)" stroke="none" stroke-width="1px">55</text></g><line x1="0" y1="0" x2="711.4" y2="0" fill="rgb(0, 0, 0)" stroke="rgb(204, 204, 204)" stroke-width="1px"></line></g></g></g></g></svg>